<svg version="1.1" xmlns="http://www.w3.org/2000/svg" xmlns:xlink="http://www.w3.org/1999/xlink" style="display: none;">
  
  <symbol id="search" viewBox="0 0 18 18">
    <path d="M13.92 13.92L17 17M16.027 8.5C16.027 10.4891 15.2368 12.3968 13.8303 13.8033C12.4238 15.2098 10.5161 16 8.52698 16C6.53785 16 4.6302 15.2098 3.22368 13.8033C1.81715 12.3968 1.02698 10.4891 1.02698 8.5C1.02698 6.51088 1.81715 4.60322 3.22368 3.1967C4.6302 1.79018 6.53785 1 8.52698 1C10.5161 1 12.4238 1.79018 13.8303 3.1967C15.2368 4.60322 16.027 6.51088 16.027 8.5Z" stroke-width="1.5" stroke-linecap="round" stroke-linejoin="round" />
  </symbol>

  <symbol id="arrow-more" viewBox="0 0 10 18">
    <path d="M9.4129 9.49808L9.41291 9.49807C9.65821 9.25276 9.65821 8.85195 9.41291 8.60665L1.97854 1.17227C1.85252 1.04625 1.69227 0.986731 1.52972 0.986731C1.36953 0.986731 1.20636 1.0499 1.08399 1.17227C0.838686 1.41757 0.838686 1.81839 1.08399 2.06369L8.07265 9.05236L1.18711 15.9379C0.941811 16.1832 0.941811 16.584 1.18711 16.8293C1.43242 17.0746 1.83323 17.0746 2.07854 16.8293L9.4129 9.49808Z" stroke-width="0.2" />
  </symbol>

  <symbol id="arrow-2" viewBox="0 0 17 17">
    <path fill-rule="evenodd" clip-rule="evenodd" d="M15.5129 16.6685C14.9611 16.6906 14.4958 16.2611 14.4737 15.7093L14.0211 4.39321L2.03792 16.3764C1.6474 16.7669 1.01423 16.7669 0.623708 16.3764C0.233183 15.9859 0.233184 15.3527 0.623708 14.9622L12.6069 2.97899L1.29085 2.52635C0.739002 2.50428 0.309538 2.03903 0.331612 1.48718C0.353687 0.93534 0.818938 0.505877 1.37078 0.52795L14.969 1.07188C15.4899 1.09271 15.9074 1.51022 15.9282 2.03111L16.4722 15.6293C16.4942 16.1812 16.0648 16.6464 15.5129 16.6685Z" />
  </symbol>

  <symbol id="clock">
    <path d="M8.145.244a8.893 8.893 0 0 0-4.635 1.88A11.781 11.781 0 0 0 2.124 3.51 8.87 8.87 0 0 0 .333 7.5a9.34 9.34 0 0 0 .084 3.437 8.862 8.862 0 0 0 4.698 5.954c1.24.608 2.49.899 3.859.899.976 0 1.7-.106 2.604-.379a8.647 8.647 0 0 0 3.754-2.314c1.282-1.33 2.084-2.957 2.373-4.815.058-.367.067-.547.067-1.282s-.009-.915-.067-1.282a8.916 8.916 0 0 0-1.83-4.208 11.764 11.764 0 0 0-1.385-1.385A8.825 8.825 0 0 0 9.81.242a12.335 12.335 0 0 0-1.665.002m1.68 1.409c1.368.139 2.838.767 3.915 1.67 1.453 1.22 2.353 2.875 2.613 4.807.05.367.05 1.373 0 1.74a7.62 7.62 0 0 1-1.558 3.735c-.213.271-.919.977-1.19 1.19-1.07.841-2.332 1.368-3.735 1.559a8.797 8.797 0 0 1-.87.038c-.322 0-.713-.017-.87-.038-1.405-.192-2.663-.716-3.735-1.559a11.525 11.525 0 0 1-1.19-1.19c-.843-1.072-1.367-2.33-1.559-3.735-.049-.367-.049-1.373 0-1.74.302-2.217 1.443-4.07 3.254-5.284 1.429-.958 3.149-1.374 4.925-1.193m-1.515 5.6v2.542l2.22 1.332c1.222.733 2.226 1.327 2.232 1.32.036-.04.438-.717.438-.738 0-.014-.888-.552-1.973-1.195L9.255 9.343l-.008-2.316L9.24 4.71h-.93v2.543" fill-rule="evenodd"/>
  </symbol>

  <symbol id="location">
    <path d="M7.891.272c-1.183.116-2.107.367-3.06.832C3.188 1.905 1.778 3.303.99 4.916a7.1 7.1 0 0 0-.669 2.181c-.068.464-.068 1.587 0 2.055.157 1.069.433 1.989.915 3.041 1.014 2.217 2.982 4.638 5.263 6.472.565.455 1.042.799 1.25.901a1.684 1.684 0 0 0 1.506-.001c.197-.098.948-.648 1.427-1.046 2.71-2.256 4.738-5.013 5.577-7.582.35-1.074.466-1.765.468-2.791.002-.985-.11-1.676-.409-2.519-.24-.673-.737-1.553-1.219-2.157C13.703 1.725 11.789.629 9.604.326 9.296.283 8.146.247 7.891.272M9.63 1.841c1.878.333 3.441 1.335 4.555 2.919.512.728.816 1.465.992 2.408.08.428.072 1.535-.015 2.026-.395 2.229-1.725 4.533-3.899 6.753a19.165 19.165 0 0 1-2.232 1.963c-.326.245-.469.337-.527.337-.085 0-.279-.131-.827-.556-1.11-.863-2.449-2.194-3.316-3.298-1.297-1.651-2.134-3.31-2.46-4.873-.114-.548-.13-.715-.129-1.403.001-.719.023-.907.17-1.487.263-1.04.824-1.971 1.741-2.891 1.109-1.114 2.489-1.764 4.165-1.965.055-.006.399-.008.765-.004.534.007.736.021 1.017.071M8.241 5.274c-1.555.12-2.718 1.628-2.448 3.173.187 1.067.907 1.874 1.962 2.197.23.071.287.077.745.077s.515-.006.745-.077a2.721 2.721 0 0 0 1.21-.726 2.72 2.72 0 0 0 .713-1.269c.081-.3.088-.917.015-1.232A2.772 2.772 0 0 0 9.94 5.668c-.518-.318-1.057-.443-1.699-.394m.466 1.497c.241.039.452.147.639.325.504.48.54 1.212.086 1.727a1.192 1.192 0 0 1-.928.418 1.12 1.12 0 0 1-.661-.182c-.692-.445-.795-1.368-.217-1.942a1.212 1.212 0 0 1 1.081-.346" fill-rule="evenodd" />
  </symbol>

  <symbol id="region" viewBox="0 0 13 12">
    <path d="M11.4688 1L7.92091 10.8249C7.89697 10.8771 7.85852 10.9214 7.81014 10.9524C7.76176 10.9835 7.70549 11 7.648 11C7.59052 11 7.53424 10.9835 7.48586 10.9524C7.43748 10.9214 7.39904 10.8771 7.37509 10.8249L5.4647 7.00408L1.64392 5.09369C1.59166 5.06974 1.54738 5.0313 1.51633 4.98292C1.48528 4.93454 1.46878 4.87826 1.46878 4.82078C1.46878 4.76329 1.48528 4.70702 1.51633 4.65864C1.54738 4.61026 1.59166 4.57181 1.64392 4.54787L11.4688 1Z" stroke-width="1.5" stroke-linecap="round" stroke-linejoin="round" />
  </symbol>

  <symbol id="phone" viewBox="0 0 15 15">
    <path d="M12.1387 9.58318L14.4269 11.8713C14.7434 12.1878 14.7434 12.701 14.4269 13.0176C12.7156 14.7289 10.0063 14.9214 8.07021 13.4693L6.91428 12.6024C5.20234 11.3184 3.68158 9.79766 2.39762 8.08572L1.53067 6.92979C0.0785842 4.99367 0.271123 2.28443 1.98243 0.573128C2.29896 0.256598 2.81215 0.256597 3.12868 0.573127L5.41682 2.86126C5.80026 3.24471 5.80026 3.8664 5.41682 4.24985L4.57488 5.09178C4.43063 5.23603 4.39487 5.45641 4.4861 5.63887C5.54091 7.74849 7.25151 9.45909 9.36113 10.5139C9.54359 10.6051 9.76396 10.5694 9.90822 10.4251L10.7501 9.58319C11.1336 9.19974 11.7553 9.19974 12.1387 9.58318Z" />
  </symbol>

  <symbol id="tg" viewBox="0 0 760 960">
    <path id="p1AjCLVK3N" d="M509 729 c-46 -34 -90 -63 -97 -66 -8 -3 -35 16 -63 43 -26 26 -51 46 -53 43 -2 -2 -2 -40 1 -84 l6 -81 163 -144 c148 -133 182 -170 154 -170 -6 0 -101 57 -212 127 -111 69 -207 126 -212 126 -32 0 -186 -56 -186 -68 0 -7 28 -24 63 -38 167 -67 645 -247 655 -247 32 0 27 42 -32 315 -34 154 -65 286 -69 293 -14 21 -32 14 -118 -49z"></path>
  </symbol>

  <symbol xmlns="http://www.w3.org/2000/svg" id="vk" viewBox="0 0 24 16" version="1.1">
    <path d="M9.76506 11.1542V0H13.6037V6.17771C16.6747 5.7659 18.6153 1.88763 19.2017 0H23.2003C22.7205 3.94682 19.5482 6.97857 17.9222 7.89377C20.6412 8.83752 24 13.3851 24 15.9591H19.8415C18.306 11.566 15.0432 10.239 13.6037 10.1245V15.9591C4.56699 16.6455 -0.231334 8.58017 0.00857902 0H4.00713C4.24702 8.06534 8.08571 10.4678 9.76506 11.1542Z" stroke="none"/>
  </symbol>

  <symbol id="wa" viewBox="0 0 32 32">
    <path d="M26.576 5.363c-2.69-2.69-6.406-4.354-10.511-4.354-8.209 0-14.865 6.655-14.865 14.865 0 2.732 0.737 5.291 2.022 7.491l-0.038-0.070-2.109 7.702 7.879-2.067c2.051 1.139 4.498 1.809 7.102 1.809h0.006c8.209-0.003 14.862-6.659 14.862-14.868 0-4.103-1.662-7.817-4.349-10.507l0 0zM16.062 28.228h-0.005c-0 0-0.001 0-0.001 0-2.319 0-4.489-0.64-6.342-1.753l0.056 0.031-0.451-0.267-4.675 1.227 1.247-4.559-0.294-0.467c-1.185-1.862-1.889-4.131-1.889-6.565 0-6.822 5.531-12.353 12.353-12.353s12.353 5.531 12.353 12.353c0 6.822-5.53 12.353-12.353 12.353h-0zM22.838 18.977c-0.371-0.186-2.197-1.083-2.537-1.208-0.341-0.124-0.589-0.185-0.837 0.187-0.246 0.371-0.958 1.207-1.175 1.455-0.216 0.249-0.434 0.279-0.805 0.094-1.15-0.466-2.138-1.087-2.997-1.852l0.010 0.009c-0.799-0.74-1.484-1.587-2.037-2.521l-0.028-0.052c-0.216-0.371-0.023-0.572 0.162-0.757 0.167-0.166 0.372-0.434 0.557-0.65 0.146-0.179 0.271-0.384 0.366-0.604l0.006-0.017c0.043-0.087 0.068-0.188 0.068-0.296 0-0.131-0.037-0.253-0.101-0.357l0.002 0.003c-0.094-0.186-0.836-2.014-1.145-2.758-0.302-0.724-0.609-0.625-0.836-0.637-0.216-0.010-0.464-0.012-0.712-0.012-0.395 0.010-0.746 0.188-0.988 0.463l-0.001 0.002c-0.802 0.761-1.3 1.834-1.3 3.023 0 0.026 0 0.053 0.001 0.079l-0-0.004c0.131 1.467 0.681 2.784 1.527 3.857l-0.012-0.015c1.604 2.379 3.742 4.282 6.251 5.564l0.094 0.043c0.548 0.248 1.25 0.513 1.968 0.74l0.149 0.041c0.442 0.14 0.951 0.221 1.479 0.221 0.303 0 0.601-0.027 0.889-0.078l-0.031 0.004c1.069-0.223 1.956-0.868 2.497-1.749l0.009-0.017c0.165-0.366 0.261-0.793 0.261-1.242 0-0.185-0.016-0.366-0.047-0.542l0.003 0.019c-0.092-0.155-0.34-0.247-0.712-0.434z"/>
  </symbol>

</svg>