<svg version="1.1" xmlns="http://www.w3.org/2000/svg" xmlns:xlink="http://www.w3.org/1999/xlink" style="display: none;">
  
  <symbol id="search" viewBox="0 0 18 18">
    <path d="M13.92 13.92L17 17M16.027 8.5C16.027 10.4891 15.2368 12.3968 13.8303 13.8033C12.4238 15.2098 10.5161 16 8.52698 16C6.53785 16 4.6302 15.2098 3.22368 13.8033C1.81715 12.3968 1.02698 10.4891 1.02698 8.5C1.02698 6.51088 1.81715 4.60322 3.22368 3.1967C4.6302 1.79018 6.53785 1 8.52698 1C10.5161 1 12.4238 1.79018 13.8303 3.1967C15.2368 4.60322 16.027 6.51088 16.027 8.5Z" stroke-width="1.5" stroke-linecap="round" stroke-linejoin="round" />
  </symbol>

  <symbol id="arrow-more" viewBox="0 0 10 18">
    <path d="M9.4129 9.49808L9.41291 9.49807C9.65821 9.25276 9.65821 8.85195 9.41291 8.60665L1.97854 1.17227C1.85252 1.04625 1.69227 0.986731 1.52972 0.986731C1.36953 0.986731 1.20636 1.0499 1.08399 1.17227C0.838686 1.41757 0.838686 1.81839 1.08399 2.06369L8.07265 9.05236L1.18711 15.9379C0.941811 16.1832 0.941811 16.584 1.18711 16.8293C1.43242 17.0746 1.83323 17.0746 2.07854 16.8293L9.4129 9.49808Z" stroke-width="0.2" />
  </symbol>

  <symbol id="arrow-2" viewBox="0 0 17 17">
    <path fill-rule="evenodd" clip-rule="evenodd" d="M15.5129 16.6685C14.9611 16.6906 14.4958 16.2611 14.4737 15.7093L14.0211 4.39321L2.03792 16.3764C1.6474 16.7669 1.01423 16.7669 0.623708 16.3764C0.233183 15.9859 0.233184 15.3527 0.623708 14.9622L12.6069 2.97899L1.29085 2.52635C0.739002 2.50428 0.309538 2.03903 0.331612 1.48718C0.353687 0.93534 0.818938 0.505877 1.37078 0.52795L14.969 1.07188C15.4899 1.09271 15.9074 1.51022 15.9282 2.03111L16.4722 15.6293C16.4942 16.1812 16.0648 16.6464 15.5129 16.6685Z" />
  </symbol>

  <symbol id="arrow-right" viewBox="0 0 17 19">
    <path fill-rule="evenodd" clip-rule="evenodd" d="M8.2412 18.0511C7.93683 17.7701 7.91785 17.2957 8.1988 16.9913L14.4215 10.25L0.749905 10.25C0.335691 10.25 -9.46387e-05 9.91421 -9.46025e-05 9.49999C-9.45663e-05 9.08578 0.335691 8.74999 0.749905 8.74999L14.4215 8.75L8.1988 2.0087C7.91785 1.70434 7.93683 1.22984 8.2412 0.948892C8.54556 0.667939 9.02006 0.686919 9.30101 0.991285L16.6856 8.99129C16.9508 9.27858 16.9508 9.72141 16.6856 10.0087L9.30101 18.0087C9.02006 18.3131 8.54556 18.3321 8.2412 18.0511Z" />
  </symbol>

  <symbol id="clock" viewBox="0 0 18 18">
    <path d="M8.2 9.84338V4.6H9.35V9.225V9.28194L9.39897 9.311L13.3619 11.6624L12.7913 12.5982L8.2 9.84338ZM9 16.3C10.9361 16.3 12.7929 15.5309 14.1619 14.1619C15.5309 12.7929 16.3 10.9361 16.3 9C16.3 7.06392 15.5309 5.20714 14.1619 3.83812C12.7929 2.4691 10.9361 1.7 9 1.7C7.06392 1.7 5.20714 2.4691 3.83812 3.83812C2.4691 5.20714 1.7 7.06392 1.7 9C1.7 10.9361 2.4691 12.7929 3.83812 14.1619C5.20714 15.5309 7.06392 16.3 9 16.3ZM9 0.1C10.1688 0.1 11.3261 0.330205 12.4059 0.777472C13.4857 1.22474 14.4668 1.88031 15.2932 2.70675C16.1197 3.53319 16.7753 4.51432 17.2225 5.59412C17.6698 6.67391 17.9 7.83123 17.9 9C17.9 11.3604 16.9623 13.6242 15.2932 15.2932C13.6242 16.9623 11.3604 17.9 9 17.9C4.07842 17.9 0.1 13.895 0.1 9C0.1 6.63957 1.03768 4.37582 2.70675 2.70675C4.37582 1.03768 6.63957 0.1 9 0.1Z" stroke-width="0.2" />
  </symbol>

  <symbol id="location" viewBox="0 0 17 20">
    <path d="M8.5,19.8c-0.4,0-0.7-0.1-1-0.3c-3.1-2.2-6.9-6.4-7.2-10.7C0.1,6.4,0.9,4.4,2.6,2.6c1.6-1.5,3.7-2.4,5.9-2.4
      c0,0,0,0,0,0c2.2,0,4.3,0.9,5.9,2.4c1.8,1.7,2.5,3.8,2.4,6.1c-0.3,4.3-4.1,8.5-7.2,10.7C9.2,19.6,8.9,19.8,8.5,19.8z M8.5,1.8
      c-1.8,0-3.5,0.7-4.8,2C2.3,5.1,1.6,6.8,1.8,8.6c0.3,3.8,3.7,7.5,6.6,9.6c0.1,0.1,0.2,0.1,0.2,0c0,0,0,0,0,0c2.9-2,6.3-5.8,6.6-9.6
      c0.1-1.9-0.5-3.5-1.9-4.9C12,2.5,10.3,1.8,8.5,1.8C8.5,1.8,8.5,1.8,8.5,1.8z"/>
    <path d="M6.6,6.1c0.5-0.5,1.2-0.8,1.9-0.8c0.7,0,1.4,0.3,1.9,0.8C11,6.6,11.2,7.3,11.2,8c0,0.7-0.3,1.4-0.8,1.9
      c-0.5,0.5-1.2,0.8-1.9,0.8c-0.7,0-1.4-0.3-1.9-0.8C6,9.4,5.7,8.7,5.7,8C5.7,7.3,6,6.6,6.6,6.1z M8.5,6.7c-0.3,0-0.6,0.1-0.9,0.4
      C7.4,7.4,7.2,7.7,7.2,8c0,0.3,0.1,0.6,0.4,0.9c0.2,0.2,0.6,0.4,0.9,0.4s0.6-0.1,0.9-0.4C9.6,8.6,9.7,8.3,9.7,8
      c0-0.3-0.1-0.6-0.4-0.9C9.1,6.9,8.8,6.7,8.5,6.7z"/>
  </symbol>


  <symbol id="region" viewBox="0 0 13 12">
    <path d="M11.4688 1L7.92091 10.8249C7.89697 10.8771 7.85852 10.9214 7.81014 10.9524C7.76176 10.9835 7.70549 11 7.648 11C7.59052 11 7.53424 10.9835 7.48586 10.9524C7.43748 10.9214 7.39904 10.8771 7.37509 10.8249L5.4647 7.00408L1.64392 5.09369C1.59166 5.06974 1.54738 5.0313 1.51633 4.98292C1.48528 4.93454 1.46878 4.87826 1.46878 4.82078C1.46878 4.76329 1.48528 4.70702 1.51633 4.65864C1.54738 4.61026 1.59166 4.57181 1.64392 4.54787L11.4688 1Z" stroke-width="1.5" stroke-linecap="round" stroke-linejoin="round" />
  </symbol>

  <symbol id="phone" viewBox="0 0 15 15">
    <path d="M12.1387 9.58318L14.4269 11.8713C14.7434 12.1878 14.7434 12.701 14.4269 13.0176C12.7156 14.7289 10.0063 14.9214 8.07021 13.4693L6.91428 12.6024C5.20234 11.3184 3.68158 9.79766 2.39762 8.08572L1.53067 6.92979C0.0785842 4.99367 0.271123 2.28443 1.98243 0.573128C2.29896 0.256598 2.81215 0.256597 3.12868 0.573127L5.41682 2.86126C5.80026 3.24471 5.80026 3.8664 5.41682 4.24985L4.57488 5.09178C4.43063 5.23603 4.39487 5.45641 4.4861 5.63887C5.54091 7.74849 7.25151 9.45909 9.36113 10.5139C9.54359 10.6051 9.76396 10.5694 9.90822 10.4251L10.7501 9.58319C11.1336 9.19974 11.7553 9.19974 12.1387 9.58318Z" />
  </symbol>

  <symbol id="home" viewBox="0 0 21 18">
    <path d="M19.6734 6.38168L11.5102 -1.78154C11.3775 -1.91421 11.22 -2.01945 11.0467 -2.09126C10.8734 -2.16306 10.6876 -2.20001 10.5 -2.20001C10.3124 -2.20001 10.1266 -2.16306 9.95327 -2.09126C9.77994 -2.01945 9.62245 -1.91421 9.4898 -1.78154L1.32657 6.38168C1.19356 6.51408 1.0881 6.67152 1.01629 6.84491C0.944482 7.0183 0.907747 7.20421 0.908207 7.39188V17.1877C0.908207 17.3501 0.972711 17.5058 1.08753 17.6207C1.20235 17.7355 1.35807 17.8 1.52045 17.8H8.05103C8.2134 17.8 8.36913 17.7355 8.48395 17.6207C8.59876 17.5058 8.66327 17.3501 8.66327 17.1877V11.2694H12.3367V17.1877C12.3367 17.3501 12.4012 17.5058 12.516 17.6207C12.6309 17.7355 12.7866 17.8 12.949 17.8H19.4795C19.6419 17.8 19.7976 17.7355 19.9125 17.6207C20.0273 17.5058 20.0918 17.3501 20.0918 17.1877V7.39188C20.0922 7.20421 20.0555 7.0183 19.9837 6.84491C19.9119 6.67152 19.8064 6.51408 19.6734 6.38168ZM18.8673 16.5755H13.5612V10.6572C13.5612 10.4948 13.4967 10.3391 13.3819 10.2242C13.2671 10.1094 13.1113 10.0449 12.949 10.0449H8.05103C7.88865 10.0449 7.73292 10.1094 7.61811 10.2242C7.50329 10.3391 7.43879 10.4948 7.43879 10.6572V16.5755H2.13269V7.39188C2.13254 7.36502 2.13768 7.3384 2.14784 7.31353C2.158 7.28867 2.17296 7.26605 2.19187 7.24698L10.3551 -0.916242C10.3741 -0.93537 10.3966 -0.950553 10.4215 -0.960914C10.4464 -0.971275 10.4731 -0.976609 10.5 -0.976609C10.5269 -0.976609 10.5536 -0.971275 10.5785 -0.960914C10.6033 -0.950553 10.6259 -0.93537 10.6449 -0.916242L18.8081 7.24698C18.827 7.26605 18.842 7.28867 18.8521 7.31353C18.8623 7.3384 18.8675 7.36502 18.8673 7.39188V16.5755Z" />
  </symbol>

  <symbol id="car" viewBox="0 0 22 21">
    <path fill-rule="evenodd" clip-rule="evenodd" d="M0.411987 1.375C0.411987 0.960786 0.747774 0.625 1.16199 0.625H3.07304C3.94393 0.625 4.68229 1.26538 4.80545 2.12751L5.14636 4.51389H19.8368C20.9995 4.51389 21.8389 5.62672 21.5195 6.74465L19.8687 12.5224C19.6541 13.2737 18.9674 13.7917 18.186 13.7917H6.357V16.4861C6.357 16.6242 6.46893 16.7361 6.607 16.7361H18.9403C19.3545 16.7361 19.6903 17.0719 19.6903 17.4861C19.6903 17.9003 19.3545 18.2361 18.9403 18.2361H6.607C5.6405 18.2361 4.857 17.4526 4.857 16.4861V13.095L3.32053 2.33964C3.30293 2.21648 3.19745 2.125 3.07304 2.125H1.16199C0.747774 2.125 0.411987 1.78921 0.411987 1.375ZM6.25747 12.2917H18.186C18.2977 12.2917 18.3958 12.2177 18.4264 12.1103L20.0772 6.33257C20.1228 6.17286 20.0029 6.01389 19.8368 6.01389H5.36065L6.25747 12.2917Z" />
    <path d="M10.0514 20.2639C10.0514 20.8775 9.55398 21.375 8.94033 21.375C8.32669 21.375 7.82922 20.8775 7.82922 20.2639C7.82922 19.6502 8.32669 19.1528 8.94033 19.1528C9.55398 19.1528 10.0514 19.6502 10.0514 20.2639Z" />
    <path d="M16.7181 20.2639C16.7181 20.8775 16.2206 21.375 15.607 21.375C14.9933 21.375 14.4958 20.8775 14.4958 20.2639C14.4958 19.6502 14.9933 19.1528 15.607 19.1528C16.2206 19.1528 16.7181 19.6502 16.7181 20.2639Z" />
  </symbol>

  <symbol id="search-menu" viewBox="0 0 31 19">
    <path fill-rule="evenodd" clip-rule="evenodd" d="M14.696 2.74066C16.2107 1.22595 18.2651 0.375 20.4072 0.375C22.5493 0.375 24.6037 1.22595 26.1184 2.74066C27.6331 4.25537 28.4841 6.30976 28.4841 8.45188C28.4841 10.362 27.8075 12.2024 26.587 13.6526L30.1276 17.1932C30.3979 17.4635 30.3979 17.9019 30.1276 18.1722C29.8572 18.4426 29.4188 18.4426 29.1485 18.1722L25.6079 14.6316C24.1577 15.8521 22.3173 16.5288 20.4072 16.5288C18.2651 16.5288 16.2107 15.6778 14.696 14.1631C13.1813 12.6484 12.3303 10.594 12.3303 8.45188C12.3303 6.30976 13.1813 4.25537 14.696 2.74066ZM20.4072 1.75962C18.6323 1.75962 16.9301 2.46469 15.6751 3.71973C14.42 4.97478 13.7149 6.67698 13.7149 8.45188C13.7149 10.2268 14.42 11.929 15.6751 13.184C16.9301 14.4391 18.6323 15.1441 20.4072 15.1441C22.1821 15.1441 23.8843 14.4391 25.1393 13.184C26.3944 11.929 27.0995 10.2268 27.0995 8.45188C27.0995 6.67698 26.3944 4.97478 25.1393 3.71973C23.8843 2.46469 22.1821 1.75962 20.4072 1.75962Z" />
    <path fill-rule="evenodd" clip-rule="evenodd" d="M1 3.75C1 3.33579 1.33579 3 1.75 3H10.3125C10.7267 3 11.0625 3.33579 11.0625 3.75C11.0625 4.16421 10.7267 4.5 10.3125 4.5H1.75C1.33579 4.5 1 4.16421 1 3.75Z" />
    <path fill-rule="evenodd" clip-rule="evenodd" d="M0.669678 14.625C0.669678 14.2108 1.00546 13.875 1.41968 13.875H9.48218C9.89639 13.875 10.2322 14.2108 10.2322 14.625C10.2322 15.0392 9.89639 15.375 9.48218 15.375H1.41968C1.00546 15.375 0.669678 15.0392 0.669678 14.625Z" />
    <path fill-rule="evenodd" clip-rule="evenodd" d="M0.889038 9C0.889038 8.58579 1.22482 8.25 1.63904 8.25H8.20154C8.61575 8.25 8.95154 8.58579 8.95154 9C8.95154 9.41421 8.61575 9.75 8.20154 9.75H1.63904C1.22482 9.75 0.889038 9.41421 0.889038 9Z" />
  </symbol>

  <symbol id="burger" viewBox="0 0 22 19">
    <path fill-rule="evenodd" clip-rule="evenodd" d="M22 2.375H0V0.875H22V2.375Z" />
    <path fill-rule="evenodd" clip-rule="evenodd" d="M22 10.375H0V8.875H22V10.375Z" />
    <path fill-rule="evenodd" clip-rule="evenodd" d="M22 18.375H0V16.875H22V18.375Z" />
  </symbol>

  <symboll id="burger" viewBox="0 0 22 22">
    <path fill-rule="evenodd" clip-rule="evenodd" d="M21.1143 4.37143H1V3H21.1143V4.37143Z" />
    <path fill-rule="evenodd" clip-rule="evenodd" d="M21.1143 11.6857H1V10.3143H21.1143V11.6857Z" />
    <path fill-rule="evenodd" clip-rule="evenodd" d="M21.1143 19H1V17.6286H21.1143V19Z" />
  </symboll>

  <symbol id="close" viewBox="0 0 14 14">
    <path fill-rule="evenodd" clip-rule="evenodd" d="M13.7348 1.54544C13.8189 1.46147 13.8856 1.36178 13.9311 1.25204C13.9767 1.1423 14.0002 1.02466 14.0002 0.905851C14.0003 0.787039 13.977 0.669376 13.9316 0.559581C13.8862 0.449785 13.8196 0.350006 13.7356 0.265941C13.6517 0.181877 13.552 0.115173 13.4422 0.0696381C13.3325 0.0241032 13.2149 0.000629137 13.096 0.000556112C12.9772 0.000483087 12.8596 0.0238125 12.7498 0.0692125C12.64 0.114612 12.5402 0.181194 12.4561 0.265155L7 5.72129L1.54544 0.265155C1.37566 0.0953789 1.14539 -1.78888e-09 0.905295 0C0.665196 1.78888e-09 0.434931 0.0953789 0.265155 0.265155C0.0953789 0.434931 1.78888e-09 0.665196 0 0.905295C-1.78888e-09 1.14539 0.0953789 1.37566 0.265155 1.54544L5.72129 7L0.265155 12.4546C0.18109 12.5386 0.114407 12.6384 0.0689114 12.7483C0.023416 12.8581 0 12.9758 0 13.0947C0 13.2136 0.023416 13.3313 0.0689114 13.4411C0.114407 13.551 0.18109 13.6508 0.265155 13.7348C0.434931 13.9046 0.665196 14 0.905295 14C1.02418 14 1.1419 13.9766 1.25174 13.9311C1.36157 13.8856 1.46137 13.8189 1.54544 13.7348L7 8.27871L12.4561 13.7348C12.6259 13.9044 12.8561 13.9996 13.096 13.9994C13.336 13.9993 13.5661 13.9038 13.7356 13.7341C13.9052 13.5643 14.0004 13.3341 14.0002 13.0941C14.0001 12.8542 13.9046 12.6241 13.7348 12.4546L8.27871 7L13.7348 1.54544Z" />
  </symbol>

  <symbol id="catalog" viewBox="0 0 14 14">
    <rect width="6" height="6" rx="2" />
    <rect y="8" width="6" height="6" rx="2" />
    <rect x="8" width="6" height="6" rx="2" />
    <rect x="8" y="8" width="6" height="6" rx="2" />
  </symbol>

</svg>