<svg width="500" height="156" viewBox="0 0 500 156" fill="none" xmlns="http://www.w3.org/2000/svg">
<path d="M171.716 111.362V89.5058H175.026L184.611 105.461H182.832L192.261 89.5058H195.571L195.633 111.362H191.762L191.73 95.532H192.542L184.549 108.865H182.738L174.62 95.532H175.557V111.362H171.716Z" fill="white"/>
<path d="M209.087 111.581C207.235 111.581 205.611 111.217 204.217 110.488C202.843 109.739 201.771 108.719 201.001 107.428C200.251 106.138 199.876 104.67 199.876 103.026C199.876 101.36 200.241 99.8929 200.969 98.6231C201.719 97.3326 202.739 96.323 204.029 95.5944C205.341 94.8659 206.829 94.5016 208.494 94.5016C210.118 94.5016 211.565 94.8555 212.834 95.5632C214.104 96.271 215.103 97.2701 215.832 98.5607C216.56 99.8513 216.925 101.371 216.925 103.119C216.925 103.286 216.914 103.473 216.893 103.681C216.893 103.89 216.883 104.087 216.862 104.275H202.968V101.683H214.801L213.271 102.495C213.292 101.537 213.095 100.694 212.678 99.9658C212.262 99.2372 211.689 98.6648 210.961 98.2485C210.253 97.8321 209.431 97.624 208.494 97.624C207.537 97.624 206.694 97.8321 205.965 98.2485C205.257 98.6648 204.695 99.2476 204.279 99.997C203.884 100.726 203.686 101.589 203.686 102.589V103.213C203.686 104.212 203.915 105.097 204.373 105.867C204.831 106.637 205.476 107.23 206.309 107.647C207.141 108.063 208.099 108.271 209.181 108.271C210.118 108.271 210.961 108.126 211.71 107.834C212.46 107.543 213.126 107.085 213.709 106.46L215.801 108.865C215.051 109.739 214.104 110.415 212.959 110.894C211.835 111.352 210.545 111.581 209.087 111.581Z" fill="white"/>
<path d="M240.626 111.362L235.755 103.369L238.94 101.402L245.278 111.362H240.626ZM232.601 104.681V101.433H238.19V104.681H232.601ZM239.314 103.494L235.63 103.057L240.688 94.6889H244.841L239.314 103.494ZM223.015 111.362H218.394L224.702 101.402L227.886 103.369L223.015 111.362ZM233.756 111.362H229.885V94.6889H233.756V111.362ZM231.04 104.681H225.482V101.433H231.04V104.681ZM224.327 103.494L218.8 94.6889H222.953L227.98 103.057L224.327 103.494Z" fill="white"/>
<path d="M255.217 111.581C253.469 111.581 251.908 111.217 250.534 110.488C249.181 109.739 248.119 108.719 247.349 107.428C246.579 106.138 246.194 104.67 246.194 103.026C246.194 101.36 246.579 99.8929 247.349 98.6231C248.119 97.3326 249.181 96.323 250.534 95.5944C251.908 94.8659 253.469 94.5016 255.217 94.5016C256.841 94.5016 258.267 94.8347 259.495 95.5008C260.744 96.1461 261.691 97.1036 262.336 98.3734L259.339 100.122C258.839 99.3309 258.225 98.748 257.497 98.3734C256.789 97.9987 256.019 97.8113 255.186 97.8113C254.229 97.8113 253.365 98.0195 252.595 98.4358C251.824 98.8521 251.221 99.4558 250.784 100.247C250.347 101.017 250.128 101.943 250.128 103.026C250.128 104.108 250.347 105.045 250.784 105.836C251.221 106.606 251.824 107.199 252.595 107.616C253.365 108.032 254.229 108.24 255.186 108.24C256.019 108.24 256.789 108.053 257.497 107.678C258.225 107.303 258.839 106.721 259.339 105.93L262.336 107.678C261.691 108.927 260.744 109.895 259.495 110.582C258.267 111.248 256.841 111.581 255.217 111.581Z" fill="white"/>
<path d="M272.96 111.581C271.253 111.581 269.734 111.217 268.401 110.488C267.069 109.739 266.018 108.719 265.248 107.428C264.478 106.138 264.093 104.67 264.093 103.026C264.093 101.36 264.478 99.8929 265.248 98.6231C266.018 97.3326 267.069 96.323 268.401 95.5944C269.734 94.8659 271.253 94.5016 272.96 94.5016C274.688 94.5016 276.218 94.8659 277.55 95.5944C278.903 96.323 279.954 97.3222 280.704 98.5919C281.474 99.8617 281.859 101.34 281.859 103.026C281.859 104.67 281.474 106.138 280.704 107.428C279.954 108.719 278.903 109.739 277.55 110.488C276.218 111.217 274.688 111.581 272.96 111.581ZM272.96 108.24C273.918 108.24 274.771 108.032 275.52 107.616C276.27 107.199 276.853 106.596 277.269 105.805C277.706 105.014 277.925 104.087 277.925 103.026C277.925 101.943 277.706 101.017 277.269 100.247C276.853 99.4558 276.27 98.8521 275.52 98.4358C274.771 98.0195 273.928 97.8113 272.991 97.8113C272.034 97.8113 271.18 98.0195 270.431 98.4358C269.702 98.8521 269.12 99.4558 268.682 100.247C268.245 101.017 268.027 101.943 268.027 103.026C268.027 104.087 268.245 105.014 268.682 105.805C269.12 106.596 269.702 107.199 270.431 107.616C271.18 108.032 272.023 108.24 272.96 108.24Z" fill="white"/>
<path d="M285.714 111.362V94.6889H289.617V101.152H294.582V104.681H289.617V111.362H285.714ZM300.952 111.581C299.286 111.581 297.798 111.217 296.487 110.488C295.196 109.739 294.176 108.719 293.427 107.428C292.677 106.138 292.303 104.67 292.303 103.026C292.303 101.36 292.677 99.8825 293.427 98.5919C294.176 97.3013 295.196 96.3022 296.487 95.5944C297.798 94.8659 299.286 94.5016 300.952 94.5016C302.638 94.5016 304.126 94.8659 305.417 95.5944C306.728 96.3022 307.758 97.3013 308.508 98.5919C309.257 99.8825 309.632 101.36 309.632 103.026C309.632 104.67 309.257 106.148 308.508 107.459C307.758 108.75 306.728 109.76 305.417 110.488C304.126 111.217 302.638 111.581 300.952 111.581ZM300.952 108.271C301.888 108.271 302.711 108.053 303.418 107.616C304.147 107.178 304.719 106.575 305.136 105.805C305.552 105.034 305.76 104.108 305.76 103.026C305.76 101.943 305.552 101.017 305.136 100.247C304.719 99.4558 304.147 98.8521 303.418 98.4358C302.711 98.0195 301.899 97.8113 300.983 97.8113C300.067 97.8113 299.245 98.0195 298.516 98.4358C297.788 98.8521 297.215 99.4558 296.799 100.247C296.383 101.017 296.174 101.943 296.174 103.026C296.174 104.108 296.383 105.034 296.799 105.805C297.215 106.575 297.788 107.178 298.516 107.616C299.245 108.053 300.057 108.271 300.952 108.271Z" fill="white"/>
<path d="M318.495 111.643C317.225 111.643 315.966 111.498 314.717 111.206C313.489 110.894 312.375 110.457 311.376 109.895L312.469 106.991C313.281 107.449 314.197 107.803 315.217 108.053C316.237 108.303 317.257 108.427 318.276 108.427C319.151 108.427 319.9 108.344 320.525 108.178C321.149 107.99 321.628 107.72 321.961 107.366C322.315 107.012 322.492 106.606 322.492 106.148C322.492 105.482 322.2 104.982 321.617 104.649C321.055 104.295 320.244 104.119 319.182 104.119H315.966V101.496H318.87C319.536 101.496 320.098 101.423 320.556 101.277C321.035 101.131 321.399 100.913 321.649 100.621C321.898 100.33 322.023 99.9866 322.023 99.5911C322.023 99.1956 321.867 98.8521 321.555 98.5607C321.264 98.2485 320.837 98.0195 320.275 97.8738C319.713 97.7072 319.036 97.624 318.245 97.624C317.413 97.624 316.549 97.7281 315.654 97.9362C314.779 98.1444 313.884 98.4462 312.968 98.8417L311.969 95.9691C313.031 95.4904 314.061 95.1261 315.06 94.8763C316.08 94.6057 317.09 94.46 318.089 94.4392C319.609 94.3767 320.962 94.5328 322.148 94.9075C323.335 95.2822 324.271 95.8234 324.958 96.5311C325.645 97.2389 325.989 98.0715 325.989 99.0291C325.989 99.8201 325.739 100.538 325.239 101.183C324.761 101.808 324.095 102.297 323.241 102.651C322.408 103.005 321.451 103.182 320.368 103.182L320.493 102.339C322.346 102.339 323.803 102.713 324.865 103.463C325.926 104.191 326.457 105.191 326.457 106.46C326.457 107.48 326.114 108.386 325.427 109.177C324.74 109.947 323.793 110.551 322.585 110.988C321.399 111.425 320.035 111.643 318.495 111.643Z" fill="white"/>
<path d="M330.477 111.362V94.6889H334.38V101.465H342.779V94.6889H346.682V111.362H342.779V104.774H334.38V111.362H330.477Z" fill="white"/>
<path d="M368.742 111.362V94.6889H372.645V111.362H368.742ZM360.031 100.184C362.175 100.184 363.798 100.663 364.902 101.621C366.026 102.578 366.588 103.931 366.588 105.68C366.588 107.491 365.963 108.906 364.714 109.926C363.486 110.925 361.738 111.414 359.469 111.394L351.913 111.362V94.6889H355.815V100.153L360.031 100.184ZM359.125 108.521C360.27 108.542 361.144 108.303 361.748 107.803C362.352 107.303 362.653 106.575 362.653 105.617C362.653 104.66 362.352 103.973 361.748 103.556C361.165 103.119 360.291 102.89 359.125 102.87L355.815 102.838V108.49L359.125 108.521Z" fill="white"/>
<path d="M377.892 111.362V94.6889H381.795V105.68L391.006 94.6889H394.565V111.362H390.662V100.372L381.482 111.362H377.892ZM385.979 92.7219C384.313 92.7219 383.033 92.3368 382.138 91.5666C381.243 90.7756 380.785 89.6307 380.764 88.132H383.356C383.377 88.8813 383.606 89.4746 384.043 89.9117C384.501 90.3488 385.136 90.5674 385.947 90.5674C386.738 90.5674 387.363 90.3488 387.821 89.9117C388.3 89.4746 388.549 88.8813 388.57 88.132H391.224C391.203 89.6307 390.735 90.7756 389.819 91.5666C388.924 92.3368 387.644 92.7219 385.979 92.7219Z" fill="white"/>
<path d="M171.248 149.623V132.949H187.234V149.623H183.363V135.353L184.268 136.259H174.245L175.151 135.353V149.623H171.248Z" fill="white"/>
<path d="M199.932 149.841C198.225 149.841 196.705 149.477 195.373 148.748C194.041 147.999 192.99 146.979 192.22 145.688C191.449 144.398 191.064 142.93 191.064 141.286C191.064 139.621 191.449 138.153 192.22 136.883C192.99 135.593 194.041 134.583 195.373 133.855C196.705 133.126 198.225 132.762 199.932 132.762C201.66 132.762 203.19 133.126 204.522 133.855C205.875 134.583 206.926 135.582 207.675 136.852C208.446 138.122 208.831 139.6 208.831 141.286C208.831 142.93 208.446 144.398 207.675 145.688C206.926 146.979 205.875 147.999 204.522 148.748C203.19 149.477 201.66 149.841 199.932 149.841ZM199.932 146.5C200.889 146.5 201.743 146.292 202.492 145.876C203.242 145.459 203.824 144.856 204.241 144.065C204.678 143.274 204.896 142.347 204.896 141.286C204.896 140.203 204.678 139.277 204.241 138.507C203.824 137.716 203.242 137.112 202.492 136.696C201.743 136.28 200.9 136.071 199.963 136.071C199.006 136.071 198.152 136.28 197.403 136.696C196.674 137.112 196.091 137.716 195.654 138.507C195.217 139.277 194.998 140.203 194.998 141.286C194.998 142.347 195.217 143.274 195.654 144.065C196.091 144.856 196.674 145.459 197.403 145.876C198.152 146.292 198.995 146.5 199.932 146.5Z" fill="white"/>
<path d="M221.928 149.841C220.575 149.841 219.337 149.529 218.213 148.904C217.11 148.28 216.225 147.343 215.559 146.094C214.914 144.824 214.591 143.222 214.591 141.286C214.591 139.329 214.903 137.726 215.528 136.477C216.173 135.228 217.047 134.302 218.15 133.698C219.254 133.074 220.513 132.762 221.928 132.762C223.573 132.762 225.02 133.116 226.269 133.823C227.538 134.531 228.538 135.52 229.266 136.79C230.015 138.059 230.39 139.558 230.39 141.286C230.39 143.014 230.015 144.523 229.266 145.813C228.538 147.083 227.538 148.072 226.269 148.779C225.02 149.487 223.573 149.841 221.928 149.841ZM212.686 155.68V132.949H216.402V136.883L216.277 141.317L216.589 145.751V155.68H212.686ZM221.491 146.5C222.428 146.5 223.261 146.292 223.989 145.876C224.739 145.459 225.332 144.856 225.769 144.065C226.206 143.274 226.425 142.347 226.425 141.286C226.425 140.203 226.206 139.277 225.769 138.507C225.332 137.716 224.739 137.112 223.989 136.696C223.261 136.28 222.428 136.071 221.491 136.071C220.555 136.071 219.712 136.28 218.962 136.696C218.213 137.112 217.62 137.716 217.182 138.507C216.745 139.277 216.527 140.203 216.527 141.286C216.527 142.347 216.745 143.274 217.182 144.065C217.62 144.856 218.213 145.459 218.962 145.876C219.712 146.292 220.555 146.5 221.491 146.5Z" fill="white"/>
<path d="M237.131 149.623V135.322L238.036 136.259H231.26V132.949H246.872V136.259H240.128L241.034 135.322V149.623H237.131Z" fill="white"/>
<path d="M259.82 149.623V146.25L259.601 145.532V139.631C259.601 138.486 259.258 137.601 258.571 136.977C257.884 136.332 256.843 136.009 255.449 136.009C254.512 136.009 253.586 136.155 252.67 136.446C251.775 136.738 251.015 137.143 250.39 137.664L248.86 134.822C249.756 134.136 250.817 133.626 252.045 133.293C253.294 132.939 254.585 132.762 255.917 132.762C258.332 132.762 260.195 133.345 261.506 134.51C262.838 135.655 263.504 137.435 263.504 139.849V149.623H259.82ZM254.574 149.841C253.325 149.841 252.233 149.633 251.296 149.217C250.359 148.779 249.631 148.186 249.11 147.437C248.611 146.667 248.361 145.803 248.361 144.845C248.361 143.909 248.579 143.066 249.017 142.316C249.475 141.567 250.213 140.974 251.233 140.536C252.253 140.099 253.606 139.881 255.293 139.881H260.132V142.472H255.574C254.241 142.472 253.346 142.691 252.888 143.128C252.43 143.544 252.201 144.065 252.201 144.689C252.201 145.397 252.482 145.959 253.044 146.375C253.606 146.792 254.387 147 255.386 147C256.344 147 257.197 146.781 257.947 146.344C258.717 145.907 259.268 145.262 259.601 144.408L260.257 146.75C259.882 147.728 259.206 148.488 258.228 149.029C257.27 149.571 256.052 149.841 254.574 149.841Z" fill="white"/>
<path d="M265.899 149.591L266.086 146.313C266.232 146.334 266.367 146.354 266.492 146.375C266.617 146.396 266.731 146.406 266.835 146.406C267.481 146.406 267.98 146.209 268.334 145.813C268.688 145.418 268.948 144.887 269.115 144.221C269.302 143.534 269.427 142.774 269.489 141.941C269.573 141.088 269.635 140.235 269.677 139.381L269.958 132.949H283.446V149.623H279.543V135.197L280.449 136.259H272.518L273.361 135.166L273.143 139.568C273.08 141.046 272.955 142.42 272.768 143.69C272.601 144.939 272.331 146.032 271.956 146.969C271.602 147.905 271.103 148.634 270.457 149.154C269.833 149.675 269.031 149.935 268.053 149.935C267.741 149.935 267.397 149.904 267.023 149.841C266.669 149.779 266.294 149.695 265.899 149.591Z" fill="white"/>
<path d="M308.76 147.812V136.259H302.359L302.265 138.944C302.224 139.902 302.161 140.828 302.078 141.723C301.995 142.597 301.859 143.409 301.672 144.158C301.485 144.887 301.214 145.491 300.86 145.969C300.506 146.448 300.038 146.76 299.455 146.906L295.583 146.313C296.208 146.313 296.707 146.115 297.082 145.72C297.478 145.303 297.779 144.741 297.988 144.033C298.217 143.305 298.383 142.483 298.487 141.567C298.591 140.63 298.664 139.662 298.706 138.663L298.924 132.949H312.663V147.812H308.76ZM294.99 153.338V146.313H315.129V153.338H311.476V149.623H298.612V153.338H294.99Z" fill="white"/>
<path d="M316.18 149.591L316.367 146.313C316.513 146.334 316.648 146.354 316.773 146.375C316.898 146.396 317.012 146.406 317.117 146.406C317.762 146.406 318.261 146.209 318.615 145.813C318.969 145.418 319.229 144.887 319.396 144.221C319.583 143.534 319.708 142.774 319.771 141.941C319.854 141.088 319.916 140.235 319.958 139.381L320.239 132.949H333.728V149.623H329.825V135.197L330.73 136.259H322.799L323.642 135.166L323.424 139.568C323.361 141.046 323.236 142.42 323.049 143.69C322.883 144.939 322.612 146.032 322.237 146.969C321.883 147.905 321.384 148.634 320.739 149.154C320.114 149.675 319.313 149.935 318.334 149.935C318.022 149.935 317.679 149.904 317.304 149.841C316.95 149.779 316.575 149.695 316.18 149.591Z" fill="white"/>
<path d="M349.569 149.623V143.94L350.131 144.596H345.135C342.845 144.596 341.045 144.117 339.733 143.159C338.443 142.181 337.797 140.776 337.797 138.944C337.797 136.987 338.484 135.499 339.858 134.479C341.253 133.459 343.105 132.949 345.416 132.949H353.066V149.623H349.569ZM337.579 149.623L342.075 143.253H346.072L341.763 149.623H337.579ZM349.569 142.691V135.197L350.131 136.228H345.541C344.334 136.228 343.397 136.457 342.731 136.914C342.085 137.352 341.763 138.07 341.763 139.069C341.763 140.942 342.981 141.879 345.416 141.879H350.131L349.569 142.691Z" fill="white"/>
<path d="M374.907 149.935C373.533 149.935 372.305 149.727 371.223 149.31C370.14 148.894 369.204 148.259 368.413 147.406C367.642 146.531 367.049 145.428 366.633 144.096C366.217 142.764 366.008 141.182 366.008 139.35C366.008 138.018 366.123 136.8 366.352 135.697C366.581 134.593 366.924 133.605 367.382 132.73C367.84 131.835 368.413 131.044 369.099 130.357C369.807 129.671 370.629 129.098 371.566 128.64C372.503 128.182 373.564 127.828 374.751 127.579L382.494 125.924L383.057 129.421L376.031 130.857C375.636 130.94 375.157 131.065 374.595 131.232C374.054 131.377 373.492 131.606 372.909 131.919C372.347 132.21 371.816 132.637 371.316 133.199C370.838 133.74 370.442 134.448 370.13 135.322C369.838 136.176 369.693 137.248 369.693 138.538C369.693 138.934 369.703 139.235 369.724 139.444C369.766 139.631 369.797 139.839 369.818 140.068C369.859 140.276 369.88 140.588 369.88 141.005L368.413 139.475C368.829 138.413 369.401 137.508 370.13 136.758C370.879 135.988 371.743 135.405 372.721 135.01C373.721 134.593 374.803 134.385 375.969 134.385C377.53 134.385 378.914 134.708 380.121 135.353C381.329 135.999 382.276 136.904 382.963 138.07C383.65 139.235 383.993 140.557 383.993 142.035C383.993 143.576 383.619 144.939 382.869 146.125C382.12 147.312 381.058 148.249 379.684 148.936C378.331 149.602 376.739 149.935 374.907 149.935ZM375.219 146.781C376.156 146.781 376.978 146.583 377.686 146.188C378.415 145.772 378.977 145.21 379.372 144.502C379.788 143.794 379.997 143.003 379.997 142.129C379.997 141.255 379.788 140.495 379.372 139.849C378.977 139.183 378.415 138.653 377.686 138.257C376.978 137.862 376.135 137.664 375.157 137.664C374.22 137.664 373.377 137.851 372.628 138.226C371.899 138.601 371.327 139.121 370.91 139.787C370.515 140.432 370.317 141.182 370.317 142.035C370.317 142.909 370.525 143.711 370.942 144.439C371.358 145.168 371.93 145.74 372.659 146.157C373.408 146.573 374.262 146.781 375.219 146.781Z" fill="white"/>
<path d="M387.771 149.623V132.949H391.674V143.94L400.885 132.949H404.445V149.623H400.542V138.632L391.362 149.623H387.771Z" fill="white"/>
<path d="M414.758 149.904C413.488 149.904 412.229 149.758 410.98 149.466C409.752 149.154 408.638 148.717 407.639 148.155L408.732 145.251C409.544 145.709 410.46 146.063 411.48 146.313C412.5 146.563 413.52 146.688 414.54 146.688C415.414 146.688 416.163 146.604 416.788 146.438C417.412 146.25 417.891 145.98 418.224 145.626C418.578 145.272 418.755 144.866 418.755 144.408C418.755 143.742 418.463 143.242 417.881 142.909C417.318 142.556 416.507 142.379 415.445 142.379H412.229V139.756H415.133C415.799 139.756 416.361 139.683 416.819 139.537C417.298 139.392 417.662 139.173 417.912 138.882C418.162 138.59 418.286 138.247 418.286 137.851C418.286 137.456 418.13 137.112 417.818 136.821C417.527 136.509 417.1 136.28 416.538 136.134C415.976 135.967 415.299 135.884 414.508 135.884C413.676 135.884 412.812 135.988 411.917 136.196C411.043 136.404 410.147 136.706 409.232 137.102L408.232 134.229C409.294 133.75 410.324 133.386 411.324 133.136C412.344 132.866 413.353 132.72 414.352 132.699C415.872 132.637 417.225 132.793 418.411 133.168C419.598 133.542 420.535 134.084 421.221 134.791C421.908 135.499 422.252 136.332 422.252 137.289C422.252 138.08 422.002 138.798 421.502 139.444C421.024 140.068 420.358 140.557 419.504 140.911C418.672 141.265 417.714 141.442 416.632 141.442L416.756 140.599C418.609 140.599 420.066 140.974 421.128 141.723C422.189 142.451 422.72 143.451 422.72 144.72C422.72 145.74 422.377 146.646 421.69 147.437C421.003 148.207 420.056 148.811 418.848 149.248C417.662 149.685 416.299 149.904 414.758 149.904Z" fill="white"/>
<path d="M426.74 149.623V132.949H430.643V139.725H439.042V132.949H442.945V149.623H439.042V143.034H430.643V149.623H426.74Z" fill="white"/>
<path d="M455.95 149.841C454.098 149.841 452.474 149.477 451.079 148.748C449.706 147.999 448.634 146.979 447.863 145.688C447.114 144.398 446.739 142.93 446.739 141.286C446.739 139.621 447.104 138.153 447.832 136.883C448.582 135.593 449.602 134.583 450.892 133.855C452.203 133.126 453.692 132.762 455.357 132.762C456.981 132.762 458.427 133.116 459.697 133.823C460.967 134.531 461.966 135.53 462.695 136.821C463.423 138.111 463.788 139.631 463.788 141.379C463.788 141.546 463.777 141.733 463.756 141.941C463.756 142.15 463.746 142.347 463.725 142.535H449.83V139.943H461.664L460.134 140.755C460.155 139.797 459.957 138.954 459.541 138.226C459.125 137.497 458.552 136.925 457.824 136.509C457.116 136.092 456.294 135.884 455.357 135.884C454.4 135.884 453.557 136.092 452.828 136.509C452.12 136.925 451.558 137.508 451.142 138.257C450.746 138.986 450.549 139.849 450.549 140.849V141.473C450.549 142.472 450.778 143.357 451.236 144.127C451.694 144.897 452.339 145.491 453.171 145.907C454.004 146.323 454.962 146.531 456.044 146.531C456.981 146.531 457.824 146.386 458.573 146.094C459.323 145.803 459.989 145.345 460.571 144.72L462.663 147.125C461.914 147.999 460.967 148.675 459.822 149.154C458.698 149.612 457.407 149.841 455.95 149.841Z" fill="white"/>
<path d="M475.644 149.841C473.895 149.841 472.334 149.477 470.96 148.748C469.607 147.999 468.546 146.979 467.775 145.688C467.005 144.398 466.62 142.93 466.62 141.286C466.62 139.621 467.005 138.153 467.775 136.883C468.546 135.593 469.607 134.583 470.96 133.855C472.334 133.126 473.895 132.762 475.644 132.762C477.267 132.762 478.693 133.095 479.921 133.761C481.17 134.406 482.117 135.364 482.763 136.633L479.765 138.382C479.266 137.591 478.652 137.008 477.923 136.633C477.215 136.259 476.445 136.071 475.613 136.071C474.655 136.071 473.791 136.28 473.021 136.696C472.251 137.112 471.647 137.716 471.21 138.507C470.773 139.277 470.554 140.203 470.554 141.286C470.554 142.368 470.773 143.305 471.21 144.096C471.647 144.866 472.251 145.459 473.021 145.876C473.791 146.292 474.655 146.5 475.613 146.5C476.445 146.5 477.215 146.313 477.923 145.938C478.652 145.563 479.266 144.981 479.765 144.19L482.763 145.938C482.117 147.187 481.17 148.155 479.921 148.842C478.693 149.508 477.267 149.841 475.644 149.841Z" fill="white"/>
<path d="M496.316 149.623V146.25L496.097 145.532V139.631C496.097 138.486 495.754 137.601 495.067 136.977C494.38 136.332 493.339 136.009 491.944 136.009C491.008 136.009 490.081 136.155 489.165 136.446C488.27 136.738 487.51 137.143 486.886 137.664L485.356 134.822C486.251 134.136 487.313 133.626 488.541 133.293C489.79 132.939 491.08 132.762 492.413 132.762C494.827 132.762 496.69 133.345 498.002 134.51C499.334 135.655 500 137.435 500 139.849V149.623H496.316ZM491.07 149.841C489.821 149.841 488.728 149.633 487.791 149.217C486.855 148.779 486.126 148.186 485.606 147.437C485.106 146.667 484.856 145.803 484.856 144.845C484.856 143.909 485.075 143.066 485.512 142.316C485.97 141.567 486.709 140.974 487.729 140.536C488.749 140.099 490.102 139.881 491.788 139.881H496.628V142.472H492.069C490.737 142.472 489.842 142.691 489.384 143.128C488.926 143.544 488.697 144.065 488.697 144.689C488.697 145.397 488.978 145.959 489.54 146.375C490.102 146.792 490.883 147 491.882 147C492.839 147 493.693 146.781 494.442 146.344C495.212 145.907 495.764 145.262 496.097 144.408L496.753 146.75C496.378 147.728 495.702 148.488 494.723 149.029C493.766 149.571 492.548 149.841 491.07 149.841Z" fill="white"/>
<path fill-rule="evenodd" clip-rule="evenodd" d="M69.2969 25.7911C62.6752 25.8574 55.3124 25.931 47.0555 25.931L47.0555 1.02224C54.4532 1.02224 61.4074 0.954219 67.8889 0.890825C80.7797 0.764742 91.8008 0.656946 100.723 1.13886C113.977 1.85474 126.594 3.91642 135.921 12.1633C145.436 20.5771 148.905 33.0276 150.552 47.2304C152.224 61.6446 152.302 81.1243 152.302 106.525H127.393C127.393 80.5825 127.278 62.7595 125.809 50.1003C124.317 37.2296 121.697 32.8359 119.421 30.8234C116.956 28.644 112.079 26.6973 99.3797 26.0114C91.2395 25.5717 81.5337 25.6688 69.2969 25.7911Z" fill="white"/>
<path fill-rule="evenodd" clip-rule="evenodd" d="M115.7 93.951C115.614 88.1396 115.515 81.4393 115.515 73.5421L140.424 73.5421C140.424 80.3297 140.513 86.673 140.594 92.4719C140.715 101.114 140.818 108.547 140.587 114.439C140.21 124.002 138.996 134.557 131.791 142.163C124.526 149.833 113.947 151.625 103.819 152.353C95.5461 152.947 84.7855 152.911 71.5301 152.867C67.8186 152.855 63.9116 152.842 59.8089 152.842L59.8089 127.933C64.3242 127.933 68.4921 127.946 72.3479 127.958C85.3352 127.999 94.7813 128.029 102.034 127.508C111.901 126.799 113.552 125.198 113.707 125.034C113.923 124.806 115.318 123.089 115.697 113.46C115.909 108.08 115.816 101.833 115.7 93.951Z" fill="white" fill-opacity="0.7"/>
<path fill-rule="evenodd" clip-rule="evenodd" d="M28.406 72.5297C28.4919 78.3411 28.5909 85.0414 28.5909 92.9386L3.68218 92.9386C3.68219 86.151 3.59348 79.8077 3.5124 74.0089C3.39154 65.3665 3.2876 57.9334 3.51942 52.0415C3.89567 42.479 5.11015 31.9237 12.315 24.3175C19.5799 16.648 30.1593 14.8554 40.2874 14.1279C48.56 13.5338 59.3205 13.5696 72.576 13.6136C76.2874 13.626 80.1944 13.639 84.2971 13.639L84.2971 38.5477C79.7818 38.5477 75.614 38.5346 71.7582 38.5225C58.7708 38.4815 49.3247 38.4518 42.0718 38.9727C32.2047 39.6814 30.554 41.2832 30.3987 41.4472C30.1835 41.6744 28.7878 43.3915 28.4089 53.0208C28.1972 58.4008 28.2896 64.6477 28.406 72.5297Z" fill="white" fill-opacity="0.7"/>
<path d="M53.6521 113.122C53.6521 120.408 47.7453 126.315 40.4589 126.315C33.1726 126.315 27.2658 120.408 27.2658 113.122C27.2658 105.835 33.1726 99.9284 40.4589 99.9284C47.7453 99.9284 53.6521 105.835 53.6521 113.122Z" fill="white"/>
<path d="M113.901 53.3126C113.901 60.599 107.994 66.5057 100.708 66.5057C93.4212 66.5057 87.5144 60.599 87.5144 53.3126C87.5144 46.0262 93.4212 40.1194 100.708 40.1194C107.994 40.1194 113.901 46.0262 113.901 53.3126Z" fill="white"/>
<path d="M26.3863 26.4869C26.3863 33.7733 20.4795 39.68 13.1931 39.68C5.90677 39.68 0 33.7733 0 26.4869C0 19.2005 5.90677 13.2938 13.1931 13.2938C20.4795 13.2938 26.3863 19.2005 26.3863 26.4869Z" fill="white" fill-opacity="0.7"/>
<path d="M139.847 142.146C139.847 149.433 133.941 155.34 126.654 155.34C119.368 155.34 113.461 149.433 113.461 142.146C113.461 134.86 119.368 128.953 126.654 128.953C133.941 128.953 139.847 134.86 139.847 142.146Z" fill="white" fill-opacity="0.7"/>
<path d="M205.804 64.671C200.829 64.671 196.24 63.8715 192.035 62.2725C187.83 60.6735 184.158 58.423 181.019 55.5211C177.94 52.56 175.541 49.1251 173.824 45.2164C172.106 41.3077 171.248 37.0141 171.248 32.3355C171.248 27.6569 172.106 23.3633 173.824 19.4546C175.541 15.5459 177.94 12.1406 181.019 9.23872C184.158 6.27759 187.83 3.99752 192.035 2.39851C196.24 0.799505 200.829 0 205.804 0C210.838 0 215.428 0.799505 219.573 2.39851C223.778 3.99752 227.42 6.27759 230.5 9.23872C233.579 12.1406 235.978 15.5459 237.695 19.4546C239.472 23.3633 240.36 27.6569 240.36 32.3355C240.36 37.0141 239.472 41.3373 237.695 45.3052C235.978 49.2139 233.579 52.6192 230.5 55.5211C227.42 58.423 223.778 60.6735 219.573 62.2725C215.428 63.8715 210.838 64.671 205.804 64.671ZM205.804 50.1023C208.173 50.1023 210.364 49.6877 212.378 48.8586C214.451 48.0295 216.227 46.845 217.708 45.3052C219.248 43.7062 220.432 41.8111 221.261 39.6199C222.149 37.4286 222.594 35.0005 222.594 32.3355C222.594 29.6113 222.149 27.1831 221.261 25.0511C220.432 22.8599 219.248 20.9944 217.708 19.4546C216.227 17.8556 214.451 16.6415 212.378 15.8124C210.364 14.9833 208.173 14.5687 205.804 14.5687C203.435 14.5687 201.214 14.9833 199.141 15.8124C197.128 16.6415 195.351 17.8556 193.811 19.4546C192.331 20.9944 191.146 22.8599 190.258 25.0511C189.429 27.1831 189.014 29.6113 189.014 32.3355C189.014 35.0005 189.429 37.4286 190.258 39.6199C191.146 41.8111 192.331 43.7062 193.811 45.3052C195.351 46.845 197.128 48.0295 199.141 48.8586C201.214 49.6877 203.435 50.1023 205.804 50.1023Z" fill="white"/>
<path d="M249.573 63.4273V1.24367H278C283.685 1.24367 288.571 2.16162 292.657 3.99752C296.803 5.83342 300.001 8.49844 302.251 11.9926C304.502 15.4275 305.627 19.5138 305.627 24.2516C305.627 28.9302 304.502 32.987 302.251 36.4219C300.001 39.7975 296.803 42.4033 292.657 44.2392C288.571 46.0159 283.685 46.9043 278 46.9043H259.344L267.162 39.531V63.4273H249.573ZM288.038 63.4273L272.581 40.7747H291.325L306.871 63.4273H288.038ZM267.162 41.3966L259.344 33.3127H276.934C280.605 33.3127 283.33 32.5132 285.106 30.9142C286.942 29.3152 287.86 27.0943 287.86 24.2516C287.86 21.3497 286.942 19.0993 285.106 17.5003C283.33 15.9013 280.605 15.1017 276.934 15.1017H259.344L267.162 7.01787V41.3966Z" fill="white"/>
<path d="M346.422 64.671C341.507 64.671 336.947 63.9011 332.742 62.3613C328.537 60.7623 324.895 58.5119 321.815 55.61C318.795 52.7081 316.426 49.3028 314.709 45.3941C312.991 41.4262 312.133 37.0733 312.133 32.3355C312.133 27.5977 312.991 23.2745 314.709 19.3658C316.426 15.3979 318.825 11.963 321.904 9.06105C324.984 6.15915 328.626 3.9383 332.831 2.39851C337.095 0.799505 341.744 0 346.778 0C352.641 0 357.882 0.977172 362.501 2.93151C367.121 4.88586 370.941 7.69893 373.961 11.3707L362.768 21.4978C360.636 19.1881 358.326 17.4706 355.839 16.3454C353.411 15.161 350.686 14.5687 347.666 14.5687C345.001 14.5687 342.573 14.9833 340.382 15.8124C338.19 16.6415 336.325 17.8556 334.785 19.4546C333.245 20.9944 332.031 22.8599 331.143 25.0511C330.314 27.1831 329.899 29.6113 329.899 32.3355C329.899 34.9413 330.314 37.3398 331.143 39.531C332.031 41.7223 333.245 43.6174 334.785 45.2164C336.325 46.7562 338.161 47.9703 340.293 48.8586C342.484 49.6877 344.883 50.1023 347.488 50.1023C350.094 50.1023 352.641 49.6877 355.128 48.8586C357.615 47.9703 360.132 46.4897 362.679 44.4169L372.54 56.7648C368.986 59.3114 364.87 61.2657 360.192 62.6278C355.513 63.99 350.923 64.671 346.422 64.671ZM356.994 54.4551V31.003H372.54V56.7648L356.994 54.4551Z" fill="white"/>
<path d="M380.138 63.4273V52.4119L403.412 30.6477C405.07 29.1079 406.284 27.7458 407.054 26.5613C407.883 25.3769 408.416 24.3109 408.653 23.3633C408.949 22.3565 409.097 21.4386 409.097 20.6094C409.097 18.5959 408.416 17.0265 407.054 15.9013C405.751 14.776 403.767 14.2134 401.102 14.2134C398.852 14.2134 396.75 14.7168 394.795 15.7236C392.841 16.7304 391.242 18.2405 389.998 20.2541L376.94 12.9697C379.249 9.06105 382.595 5.92226 386.978 3.55335C391.36 1.18445 396.601 0 402.701 0C407.498 0 411.703 0.769894 415.316 2.30968C418.928 3.84946 421.741 6.0407 423.755 8.88338C425.828 11.7261 426.864 15.0721 426.864 18.9216C426.864 20.9352 426.598 22.9487 426.065 24.9623C425.532 26.9166 424.495 29.019 422.956 31.2695C421.475 33.4607 419.254 35.9185 416.293 38.6427L397.816 55.6988L394.884 49.4804H428.552V63.4273H380.138Z" fill="white"/>
<path d="M436.87 63.4273V1.24367H468.672C476.845 1.24367 482.945 2.75385 486.972 5.7742C490.999 8.73532 493.013 12.644 493.013 17.5003C493.013 20.6983 492.154 23.5113 490.437 25.9395C488.778 28.3084 486.409 30.2035 483.33 31.6248C480.31 32.987 476.697 33.668 472.492 33.668L474.269 29.404C478.651 29.404 482.471 30.085 485.728 31.4472C488.986 32.7501 491.503 34.6748 493.279 37.2214C495.115 39.7087 496.033 42.7587 496.033 46.3712C496.033 51.7605 493.842 55.9653 489.459 58.9856C485.136 61.9468 478.799 63.4273 470.449 63.4273H436.87ZM454.281 50.7241H469.028C472.048 50.7241 474.328 50.2207 475.868 49.2139C477.467 48.1479 478.266 46.5489 478.266 44.4169C478.266 42.2849 477.467 40.7155 475.868 39.7087C474.328 38.6427 472.048 38.1097 469.028 38.1097H453.038V25.9395H466.363C469.324 25.9395 471.545 25.4361 473.025 24.4293C474.506 23.4225 475.246 21.9123 475.246 19.8988C475.246 17.8852 474.506 16.4046 473.025 15.4571C471.545 14.4503 469.324 13.9469 466.363 13.9469H454.281V50.7241Z" fill="white"/>
</svg>
