<svg width="500" height="156" viewBox="0 0 500 156" fill="none" xmlns="http://www.w3.org/2000/svg">
<path d="M172.167 111.21V89.3829H175.472L185.044 105.316H183.267L192.684 89.3829H195.989L196.051 111.21H192.185L192.154 95.4009H192.964L184.982 108.715H183.173L175.066 95.4009H176.002V111.21H172.167Z" fill="#878787"/>
<path d="M209.487 111.428C207.637 111.428 206.015 111.064 204.622 110.337C203.25 109.588 202.18 108.57 201.411 107.281C200.662 105.992 200.288 104.526 200.288 102.884C200.288 101.221 200.652 99.7558 201.38 98.4878C202.128 97.199 203.147 96.1908 204.435 95.4632C205.745 94.7357 207.231 94.3719 208.894 94.3719C210.516 94.3719 211.96 94.7253 213.228 95.432C214.496 96.1388 215.494 97.1366 216.222 98.4254C216.949 99.7142 217.313 101.232 217.313 102.978C217.313 103.144 217.303 103.331 217.282 103.539C217.282 103.747 217.272 103.944 217.251 104.132H203.375V101.544H215.193L213.665 102.354C213.686 101.398 213.488 100.556 213.072 99.8286C212.657 99.101 212.085 98.5293 211.358 98.1136C210.651 97.6979 209.83 97.49 208.894 97.49C207.938 97.49 207.096 97.6979 206.369 98.1136C205.662 98.5293 205.101 99.1114 204.685 99.8597C204.29 100.587 204.092 101.45 204.092 102.448V103.071C204.092 104.069 204.321 104.953 204.778 105.722C205.236 106.491 205.88 107.083 206.712 107.499C207.543 107.915 208.499 108.123 209.58 108.123C210.516 108.123 211.358 107.977 212.106 107.686C212.854 107.395 213.519 106.938 214.101 106.314L216.191 108.715C215.442 109.588 214.496 110.264 213.353 110.742C212.231 111.199 210.942 111.428 209.487 111.428Z" fill="#878787"/>
<path d="M240.982 111.21L236.117 103.227L239.298 101.263L245.628 111.21H240.982ZM232.968 104.537V101.294H238.549V104.537H232.968ZM239.672 103.352L235.993 102.915L241.044 94.559H245.191L239.672 103.352ZM223.396 111.21H218.781L225.079 101.263L228.26 103.227L223.396 111.21ZM234.122 111.21H230.255V94.559H234.122V111.21ZM231.409 104.537H225.859V101.294H231.409V104.537ZM224.705 103.352L219.186 94.559H223.333L228.353 102.915L224.705 103.352Z" fill="#878787"/>
<path d="M255.553 111.428C253.807 111.428 252.248 111.064 250.876 110.337C249.525 109.588 248.465 108.57 247.696 107.281C246.927 105.992 246.542 104.526 246.542 102.884C246.542 101.221 246.927 99.7558 247.696 98.4878C248.465 97.199 249.525 96.1908 250.876 95.4632C252.248 94.7357 253.807 94.3719 255.553 94.3719C257.175 94.3719 258.599 94.7045 259.825 95.3697C261.072 96.0141 262.018 96.9703 262.663 98.2383L259.669 99.9845C259.17 99.1945 258.557 98.6125 257.83 98.2383C257.123 97.8642 256.354 97.6771 255.522 97.6771C254.566 97.6771 253.703 97.8849 252.934 98.3007C252.165 98.7164 251.562 99.3193 251.126 100.109C250.689 100.878 250.471 101.803 250.471 102.884C250.471 103.965 250.689 104.901 251.126 105.691C251.562 106.46 252.165 107.052 252.934 107.468C253.703 107.884 254.566 108.091 255.522 108.091C256.354 108.091 257.123 107.904 257.83 107.53C258.557 107.156 259.17 106.574 259.669 105.784L262.663 107.53C262.018 108.777 261.072 109.744 259.825 110.43C258.599 111.095 257.175 111.428 255.553 111.428Z" fill="#878787"/>
<path d="M273.272 111.428C271.567 111.428 270.05 111.064 268.719 110.337C267.389 109.588 266.339 108.57 265.57 107.281C264.801 105.992 264.416 104.526 264.416 102.884C264.416 101.221 264.801 99.7558 265.57 98.4878C266.339 97.199 267.389 96.1908 268.719 95.4632C270.05 94.7357 271.567 94.3719 273.272 94.3719C274.997 94.3719 276.525 94.7357 277.855 95.4632C279.206 96.1908 280.256 97.1886 281.005 98.4566C281.774 99.7246 282.158 101.201 282.158 102.884C282.158 104.526 281.774 105.992 281.005 107.281C280.256 108.57 279.206 109.588 277.855 110.337C276.525 111.064 274.997 111.428 273.272 111.428ZM273.272 108.091C274.228 108.091 275.08 107.884 275.828 107.468C276.577 107.052 277.159 106.449 277.575 105.659C278.011 104.869 278.229 103.944 278.229 102.884C278.229 101.803 278.011 100.878 277.575 100.109C277.159 99.3193 276.577 98.7164 275.828 98.3007C275.08 97.8849 274.238 97.6771 273.303 97.6771C272.347 97.6771 271.494 97.8849 270.746 98.3007C270.018 98.7164 269.436 99.3193 269 100.109C268.563 100.878 268.345 101.803 268.345 102.884C268.345 103.944 268.563 104.869 269 105.659C269.436 106.449 270.018 107.052 270.746 107.468C271.494 107.884 272.336 108.091 273.272 108.091Z" fill="#878787"/>
<path d="M286.009 111.21V94.559H289.906V101.013H294.864V104.537H289.906V111.21H286.009ZM301.225 111.428C299.562 111.428 298.076 111.064 296.766 110.337C295.477 109.588 294.459 108.57 293.71 107.281C292.962 105.992 292.588 104.526 292.588 102.884C292.588 101.221 292.962 99.7454 293.71 98.4566C294.459 97.1678 295.477 96.17 296.766 95.4632C298.076 94.7357 299.562 94.3719 301.225 94.3719C302.909 94.3719 304.395 94.7357 305.684 95.4632C306.993 96.17 308.022 97.1678 308.771 98.4566C309.519 99.7454 309.893 101.221 309.893 102.884C309.893 104.526 309.519 106.002 308.771 107.312C308.022 108.601 306.993 109.609 305.684 110.337C304.395 111.064 302.909 111.428 301.225 111.428ZM301.225 108.123C302.16 108.123 302.981 107.904 303.688 107.468C304.416 107.031 304.987 106.429 305.403 105.659C305.819 104.89 306.027 103.965 306.027 102.884C306.027 101.803 305.819 100.878 305.403 100.109C304.987 99.3193 304.416 98.7164 303.688 98.3007C302.981 97.8849 302.171 97.6771 301.256 97.6771C300.341 97.6771 299.52 97.8849 298.793 98.3007C298.065 98.7164 297.494 99.3193 297.078 100.109C296.662 100.878 296.454 101.803 296.454 102.884C296.454 103.965 296.662 104.89 297.078 105.659C297.494 106.429 298.065 107.031 298.793 107.468C299.52 107.904 300.331 108.123 301.225 108.123Z" fill="#878787"/>
<path d="M318.744 111.49C317.476 111.49 316.218 111.345 314.971 111.054C313.745 110.742 312.633 110.305 311.635 109.744L312.726 106.844C313.537 107.302 314.452 107.655 315.47 107.904C316.489 108.154 317.507 108.279 318.526 108.279C319.399 108.279 320.147 108.195 320.771 108.029C321.395 107.842 321.873 107.572 322.205 107.218C322.559 106.865 322.735 106.46 322.735 106.002C322.735 105.337 322.444 104.838 321.862 104.506C321.301 104.152 320.49 103.976 319.43 103.976H316.218V101.356H319.118C319.784 101.356 320.345 101.284 320.802 101.138C321.28 100.993 321.644 100.774 321.893 100.483C322.143 100.192 322.268 99.8493 322.268 99.4544C322.268 99.0594 322.112 98.7164 321.8 98.4254C321.509 98.1136 321.083 97.8849 320.521 97.7394C319.96 97.5731 319.285 97.49 318.495 97.49C317.663 97.49 316.801 97.5939 315.907 97.8018C315.034 98.0097 314.14 98.3111 313.225 98.706L312.227 95.8374C313.287 95.3593 314.316 94.9955 315.314 94.7461C316.333 94.4758 317.341 94.3303 318.339 94.3095C319.856 94.2472 321.207 94.4031 322.392 94.7772C323.577 95.1514 324.513 95.6919 325.199 96.3987C325.885 97.1054 326.228 97.9369 326.228 98.8931C326.228 99.683 325.978 100.4 325.479 101.045C325.001 101.668 324.336 102.157 323.484 102.51C322.652 102.863 321.696 103.04 320.615 103.04L320.74 102.198C322.59 102.198 324.045 102.572 325.105 103.321C326.165 104.048 326.695 105.046 326.695 106.314C326.695 107.333 326.352 108.237 325.666 109.027C324.98 109.796 324.034 110.399 322.829 110.835C321.644 111.272 320.282 111.49 318.744 111.49Z" fill="#878787"/>
<path d="M330.709 111.21V94.559H334.607V101.325H342.995V94.559H346.892V111.21H342.995V104.63H334.607V111.21H330.709Z" fill="#878787"/>
<path d="M368.922 111.21V94.559H372.82V111.21H368.922ZM360.223 100.047C362.364 100.047 363.985 100.525 365.087 101.481C366.21 102.437 366.771 103.789 366.771 105.535C366.771 107.343 366.147 108.757 364.9 109.775C363.673 110.773 361.927 111.262 359.662 111.241L352.116 111.21V94.559H356.013V100.016L360.223 100.047ZM359.319 108.372C360.462 108.393 361.335 108.154 361.938 107.655C362.541 107.156 362.842 106.429 362.842 105.472C362.842 104.516 362.541 103.83 361.938 103.414C361.356 102.978 360.483 102.749 359.319 102.728L356.013 102.697V108.341L359.319 108.372Z" fill="#878787"/>
<path d="M378.059 111.21V94.559H381.957V105.535L391.155 94.559H394.71V111.21H390.812V100.234L381.645 111.21H378.059ZM386.135 92.5946C384.472 92.5946 383.194 92.21 382.3 91.4409C381.406 90.651 380.949 89.5077 380.928 88.011H383.516C383.537 88.7593 383.765 89.3518 384.202 89.7883C384.659 90.2248 385.293 90.4431 386.104 90.4431C386.894 90.4431 387.517 90.2248 387.975 89.7883C388.453 89.3518 388.702 88.7593 388.723 88.011H391.374C391.353 89.5077 390.885 90.651 389.97 91.4409C389.077 92.21 387.798 92.5946 386.135 92.5946Z" fill="#878787"/>
<path d="M171.699 149.417V132.767H187.663V149.417H183.797V135.168L184.701 136.072H174.692L175.596 135.168V149.417H171.699Z" fill="#878787"/>
<path d="M200.344 149.635C198.639 149.635 197.122 149.272 195.791 148.544C194.461 147.796 193.411 146.777 192.642 145.488C191.873 144.2 191.488 142.734 191.488 141.092C191.488 139.429 191.873 137.963 192.642 136.695C193.411 135.407 194.461 134.398 195.791 133.671C197.122 132.943 198.639 132.579 200.344 132.579C202.069 132.579 203.597 132.943 204.927 133.671C206.278 134.398 207.328 135.396 208.076 136.664C208.846 137.932 209.23 139.408 209.23 141.092C209.23 142.734 208.846 144.2 208.076 145.488C207.328 146.777 206.278 147.796 204.927 148.544C203.597 149.272 202.069 149.635 200.344 149.635ZM200.344 146.299C201.3 146.299 202.152 146.091 202.9 145.675C203.649 145.26 204.231 144.657 204.647 143.867C205.083 143.077 205.301 142.152 205.301 141.092C205.301 140.011 205.083 139.086 204.647 138.317C204.231 137.527 203.649 136.924 202.9 136.508C202.152 136.093 201.31 135.885 200.375 135.885C199.419 135.885 198.566 136.093 197.818 136.508C197.09 136.924 196.508 137.527 196.072 138.317C195.635 139.086 195.417 140.011 195.417 141.092C195.417 142.152 195.635 143.077 196.072 143.867C196.508 144.657 197.09 145.26 197.818 145.675C198.566 146.091 199.408 146.299 200.344 146.299Z" fill="#878787"/>
<path d="M222.31 149.635C220.959 149.635 219.722 149.324 218.6 148.7C217.498 148.076 216.614 147.141 215.949 145.894C215.305 144.626 214.983 143.025 214.983 141.092C214.983 139.138 215.294 137.537 215.918 136.29C216.562 135.043 217.435 134.118 218.537 133.515C219.639 132.891 220.897 132.579 222.31 132.579C223.952 132.579 225.397 132.933 226.644 133.64C227.912 134.346 228.91 135.334 229.638 136.602C230.386 137.87 230.76 139.367 230.76 141.092C230.76 142.817 230.386 144.324 229.638 145.613C228.91 146.881 227.912 147.869 226.644 148.575C225.397 149.282 223.952 149.635 222.31 149.635ZM213.081 155.466V132.767H216.791V136.695L216.666 141.123L216.978 145.551V155.466H213.081ZM221.874 146.299C222.809 146.299 223.64 146.091 224.368 145.675C225.116 145.26 225.709 144.657 226.145 143.867C226.582 143.077 226.8 142.152 226.8 141.092C226.8 140.011 226.582 139.086 226.145 138.317C225.709 137.527 225.116 136.924 224.368 136.508C223.64 136.093 222.809 135.885 221.874 135.885C220.938 135.885 220.096 136.093 219.348 136.508C218.6 136.924 218.007 137.527 217.571 138.317C217.134 139.086 216.916 140.011 216.916 141.092C216.916 142.152 217.134 143.077 217.571 143.867C218.007 144.657 218.6 145.26 219.348 145.675C220.096 146.091 220.938 146.299 221.874 146.299Z" fill="#878787"/>
<path d="M237.491 149.417V135.136L238.396 136.072H231.629V132.767H247.22V136.072H240.485L241.389 135.136V149.417H237.491Z" fill="#878787"/>
<path d="M260.15 149.417V146.05L259.931 145.332V139.439C259.931 138.296 259.588 137.413 258.902 136.789C258.216 136.145 257.177 135.822 255.784 135.822C254.849 135.822 253.924 135.968 253.009 136.259C252.115 136.55 251.357 136.955 250.733 137.475L249.205 134.637C250.099 133.951 251.159 133.442 252.386 133.11C253.633 132.756 254.922 132.579 256.252 132.579C258.663 132.579 260.524 133.162 261.833 134.326C263.164 135.469 263.829 137.246 263.829 139.658V149.417H260.15ZM254.911 149.635C253.664 149.635 252.573 149.428 251.637 149.012C250.702 148.575 249.974 147.983 249.455 147.235C248.956 146.465 248.706 145.603 248.706 144.647C248.706 143.711 248.924 142.869 249.361 142.121C249.818 141.373 250.556 140.78 251.575 140.344C252.593 139.907 253.945 139.689 255.628 139.689H260.461V142.277H255.909C254.579 142.277 253.685 142.495 253.227 142.932C252.77 143.347 252.541 143.867 252.541 144.491C252.541 145.197 252.822 145.759 253.383 146.174C253.945 146.59 254.724 146.798 255.722 146.798C256.678 146.798 257.53 146.58 258.279 146.143C259.048 145.707 259.599 145.062 259.931 144.21L260.586 146.549C260.212 147.526 259.536 148.284 258.559 148.825C257.603 149.365 256.387 149.635 254.911 149.635Z" fill="#878787"/>
<path d="M266.22 149.386L266.407 146.112C266.552 146.133 266.688 146.154 266.812 146.174C266.937 146.195 267.051 146.206 267.155 146.206C267.8 146.206 268.299 146.008 268.652 145.613C269.005 145.218 269.265 144.688 269.432 144.023C269.619 143.337 269.743 142.578 269.806 141.747C269.889 140.894 269.951 140.042 269.993 139.19L270.273 132.767H283.744V149.417H279.846V135.012L280.75 136.072H272.83L273.672 134.98L273.454 139.377C273.391 140.853 273.267 142.225 273.08 143.493C272.913 144.74 272.643 145.831 272.269 146.767C271.916 147.702 271.417 148.43 270.772 148.949C270.149 149.469 269.348 149.729 268.371 149.729C268.06 149.729 267.717 149.698 267.342 149.635C266.989 149.573 266.615 149.49 266.22 149.386Z" fill="#878787"/>
<path d="M309.022 147.609V136.072H302.63L302.537 138.753C302.495 139.71 302.433 140.635 302.35 141.528C302.266 142.401 302.131 143.212 301.944 143.961C301.757 144.688 301.487 145.291 301.133 145.769C300.78 146.247 300.312 146.559 299.73 146.704L295.864 146.112C296.488 146.112 296.986 145.915 297.361 145.52C297.756 145.104 298.057 144.543 298.265 143.836C298.494 143.108 298.66 142.287 298.764 141.373C298.868 140.437 298.94 139.47 298.982 138.473L299.2 132.767H312.92V147.609H309.022ZM295.271 153.128V146.112H315.383V153.128H311.735V149.417H298.888V153.128H295.271Z" fill="#878787"/>
<path d="M316.432 149.386L316.619 146.112C316.765 146.133 316.9 146.154 317.025 146.174C317.149 146.195 317.264 146.206 317.368 146.206C318.012 146.206 318.511 146.008 318.864 145.613C319.218 145.218 319.477 144.688 319.644 144.023C319.831 143.337 319.956 142.578 320.018 141.747C320.101 140.894 320.163 140.042 320.205 139.19L320.486 132.767H333.956V149.417H330.058V135.012L330.962 136.072H323.042L323.884 134.98L323.666 139.377C323.604 140.853 323.479 142.225 323.292 143.493C323.126 144.74 322.855 145.831 322.481 146.767C322.128 147.702 321.629 148.43 320.985 148.949C320.361 149.469 319.561 149.729 318.584 149.729C318.272 149.729 317.929 149.698 317.555 149.635C317.201 149.573 316.827 149.49 316.432 149.386Z" fill="#878787"/>
<path d="M349.775 149.417V143.742L350.336 144.397H345.348C343.061 144.397 341.263 143.919 339.953 142.963C338.664 141.986 338.02 140.583 338.02 138.753C338.02 136.799 338.706 135.313 340.078 134.294C341.471 133.276 343.321 132.767 345.628 132.767H353.267V149.417H349.775ZM337.802 149.417L342.292 143.056H346.283L341.98 149.417H337.802ZM349.775 142.495V135.012L350.336 136.041H345.753C344.547 136.041 343.612 136.269 342.947 136.727C342.302 137.163 341.98 137.88 341.98 138.878C341.98 140.749 343.196 141.684 345.628 141.684H350.336L349.775 142.495Z" fill="#878787"/>
<path d="M375.079 149.729C373.707 149.729 372.48 149.521 371.399 149.105C370.319 148.69 369.383 148.056 368.593 147.203C367.824 146.33 367.232 145.229 366.816 143.898C366.4 142.568 366.192 140.988 366.192 139.159C366.192 137.828 366.307 136.612 366.535 135.511C366.764 134.409 367.107 133.421 367.564 132.548C368.022 131.654 368.593 130.865 369.279 130.179C369.986 129.493 370.807 128.921 371.742 128.464C372.678 128.006 373.738 127.653 374.923 127.403L382.656 125.751L383.217 129.243L376.201 130.677C375.806 130.761 375.328 130.885 374.767 131.052C374.227 131.197 373.665 131.426 373.083 131.738C372.522 132.029 371.992 132.455 371.493 133.016C371.015 133.556 370.62 134.263 370.308 135.136C370.017 135.989 369.872 137.059 369.872 138.348C369.872 138.743 369.882 139.044 369.903 139.252C369.944 139.439 369.976 139.647 369.996 139.876C370.038 140.084 370.059 140.396 370.059 140.811L368.593 139.283C369.009 138.223 369.581 137.319 370.308 136.571C371.056 135.802 371.919 135.219 372.896 134.825C373.894 134.409 374.975 134.201 376.139 134.201C377.698 134.201 379.08 134.523 380.286 135.168C381.492 135.812 382.437 136.716 383.123 137.88C383.809 139.044 384.152 140.364 384.152 141.84C384.152 143.378 383.778 144.74 383.03 145.925C382.282 147.11 381.221 148.045 379.849 148.731C378.498 149.396 376.908 149.729 375.079 149.729ZM375.391 146.58C376.326 146.58 377.147 146.382 377.854 145.987C378.581 145.572 379.143 145.01 379.538 144.304C379.953 143.597 380.161 142.807 380.161 141.934C380.161 141.061 379.953 140.302 379.538 139.658C379.143 138.992 378.581 138.462 377.854 138.067C377.147 137.672 376.305 137.475 375.328 137.475C374.393 137.475 373.551 137.662 372.803 138.036C372.075 138.41 371.503 138.93 371.088 139.595C370.693 140.24 370.495 140.988 370.495 141.84C370.495 142.713 370.703 143.514 371.119 144.241C371.535 144.969 372.106 145.54 372.834 145.956C373.582 146.372 374.434 146.58 375.391 146.58Z" fill="#878787"/>
<path d="M387.925 149.417V132.767H391.823V143.742L401.021 132.767H404.576V149.417H400.678V138.442L391.511 149.417H387.925Z" fill="#878787"/>
<path d="M414.875 149.698C413.607 149.698 412.35 149.552 411.102 149.261C409.876 148.949 408.764 148.513 407.766 147.952L408.857 145.052C409.668 145.509 410.583 145.863 411.601 146.112C412.62 146.361 413.638 146.486 414.657 146.486C415.53 146.486 416.278 146.403 416.902 146.237C417.526 146.05 418.004 145.779 418.336 145.426C418.69 145.073 418.866 144.667 418.866 144.21C418.866 143.545 418.575 143.046 417.993 142.713C417.432 142.36 416.621 142.183 415.561 142.183H412.349V139.564H415.249C415.915 139.564 416.476 139.491 416.933 139.346C417.411 139.2 417.775 138.982 418.024 138.691C418.274 138.4 418.399 138.057 418.399 137.662C418.399 137.267 418.243 136.924 417.931 136.633C417.64 136.321 417.214 136.093 416.652 135.947C416.091 135.781 415.416 135.698 414.626 135.698C413.794 135.698 412.932 135.802 412.038 136.009C411.165 136.217 410.271 136.519 409.356 136.914L408.358 134.045C409.418 133.567 410.447 133.203 411.445 132.954C412.464 132.683 413.472 132.538 414.47 132.517C415.987 132.455 417.338 132.611 418.523 132.985C419.708 133.359 420.644 133.899 421.33 134.606C422.016 135.313 422.359 136.145 422.359 137.101C422.359 137.891 422.109 138.608 421.61 139.252C421.132 139.876 420.467 140.364 419.615 140.718C418.783 141.071 417.827 141.248 416.746 141.248L416.871 140.406C418.721 140.406 420.176 140.78 421.236 141.528C422.296 142.256 422.826 143.254 422.826 144.522C422.826 145.54 422.483 146.445 421.797 147.235C421.111 148.004 420.166 148.606 418.96 149.043C417.775 149.48 416.413 149.698 414.875 149.698Z" fill="#878787"/>
<path d="M426.84 149.417V132.767H430.738V139.533H439.126V132.767H443.023V149.417H439.126V142.838H430.738V149.417H426.84Z" fill="#878787"/>
<path d="M456.011 149.635C454.161 149.635 452.539 149.272 451.147 148.544C449.775 147.796 448.704 146.777 447.935 145.488C447.187 144.2 446.812 142.734 446.812 141.092C446.812 139.429 447.176 137.963 447.904 136.695C448.652 135.407 449.671 134.398 450.96 133.671C452.269 132.943 453.755 132.579 455.418 132.579C457.04 132.579 458.484 132.933 459.753 133.64C461.021 134.346 462.018 135.344 462.746 136.633C463.473 137.922 463.837 139.439 463.837 141.185C463.837 141.352 463.827 141.539 463.806 141.747C463.806 141.955 463.796 142.152 463.775 142.339H449.899V139.751H461.717L460.189 140.562C460.21 139.606 460.012 138.764 459.597 138.036C459.181 137.309 458.609 136.737 457.882 136.321C457.175 135.905 456.354 135.698 455.418 135.698C454.462 135.698 453.62 135.905 452.893 136.321C452.186 136.737 451.625 137.319 451.209 138.067C450.814 138.795 450.617 139.658 450.617 140.655V141.279C450.617 142.277 450.845 143.16 451.303 143.929C451.76 144.698 452.404 145.291 453.236 145.707C454.067 146.122 455.023 146.33 456.104 146.33C457.04 146.33 457.882 146.185 458.63 145.894C459.378 145.603 460.044 145.145 460.626 144.522L462.715 146.923C461.966 147.796 461.021 148.471 459.877 148.949C458.755 149.407 457.466 149.635 456.011 149.635Z" fill="#878787"/>
<path d="M475.677 149.635C473.931 149.635 472.372 149.272 471 148.544C469.649 147.796 468.589 146.777 467.82 145.488C467.05 144.2 466.666 142.734 466.666 141.092C466.666 139.429 467.05 137.963 467.82 136.695C468.589 135.407 469.649 134.398 471 133.671C472.372 132.943 473.931 132.579 475.677 132.579C477.299 132.579 478.723 132.912 479.949 133.577C481.196 134.222 482.142 135.178 482.786 136.446L479.793 138.192C479.294 137.402 478.681 136.82 477.953 136.446C477.247 136.072 476.478 135.885 475.646 135.885C474.69 135.885 473.827 136.093 473.058 136.508C472.289 136.924 471.686 137.527 471.25 138.317C470.813 139.086 470.595 140.011 470.595 141.092C470.595 142.173 470.813 143.108 471.25 143.898C471.686 144.667 472.289 145.26 473.058 145.675C473.827 146.091 474.69 146.299 475.646 146.299C476.478 146.299 477.247 146.112 477.953 145.738C478.681 145.364 479.294 144.782 479.793 143.992L482.786 145.738C482.142 146.985 481.196 147.952 479.949 148.638C478.723 149.303 477.299 149.635 475.677 149.635Z" fill="#878787"/>
<path d="M496.321 149.417V146.05L496.102 145.332V139.439C496.102 138.296 495.759 137.413 495.073 136.789C494.387 136.145 493.348 135.822 491.955 135.822C491.02 135.822 490.095 135.968 489.18 136.259C488.286 136.55 487.528 136.955 486.904 137.475L485.376 134.637C486.27 133.951 487.33 133.442 488.557 133.11C489.804 132.756 491.093 132.579 492.423 132.579C494.834 132.579 496.695 133.162 498.004 134.326C499.335 135.469 500 137.246 500 139.658V149.417H496.321ZM491.082 149.635C489.835 149.635 488.744 149.428 487.808 149.012C486.873 148.575 486.145 147.983 485.626 147.235C485.127 146.465 484.877 145.603 484.877 144.647C484.877 143.711 485.096 142.869 485.532 142.121C485.989 141.373 486.727 140.78 487.746 140.344C488.765 139.907 490.116 139.689 491.799 139.689H496.632V142.277H492.08C490.75 142.277 489.856 142.495 489.399 142.932C488.941 143.347 488.713 143.867 488.713 144.491C488.713 145.197 488.993 145.759 489.554 146.174C490.116 146.59 490.895 146.798 491.893 146.798C492.849 146.798 493.701 146.58 494.45 146.143C495.219 145.707 495.77 145.062 496.102 144.21L496.757 146.549C496.383 147.526 495.707 148.284 494.73 148.825C493.774 149.365 492.558 149.635 491.082 149.635Z" fill="#878787"/>
<path fill-rule="evenodd" clip-rule="evenodd" d="M69.2438 26.4933C62.6277 26.5595 55.2631 26.6332 46.991 26.6332L46.9909 0.283141C54.3541 0.283133 61.2864 0.215368 67.7543 0.152143C80.6455 0.0261291 91.6913 -0.0818459 100.625 0.400668C113.877 1.11646 126.706 3.17871 136.223 11.594C145.94 20.1858 149.429 32.8578 151.079 47.0806C152.754 61.527 152.83 81.0291 152.83 106.379H126.48C126.48 80.4559 126.364 62.7065 124.904 50.1166C123.418 37.3031 120.827 33.154 118.769 31.3338C116.51 29.3371 111.869 27.3965 99.2035 26.7124C91.0975 26.2746 81.4431 26.3712 69.2438 26.4933Z" fill="#FD4344"/>
<path fill-rule="evenodd" clip-rule="evenodd" d="M114.804 93.865C114.718 88.0625 114.619 81.3619 114.619 73.4415L140.969 73.4415C140.969 80.1881 141.057 86.5111 141.138 92.3003C141.259 100.952 141.363 108.412 141.131 114.311C140.755 123.859 139.548 134.661 132.146 142.476C124.68 150.357 113.851 152.153 103.729 152.88C95.4375 153.475 84.6525 153.439 71.4087 153.395C67.7066 153.383 63.8124 153.37 59.7268 153.37L59.7268 127.02C64.2489 127.02 68.4191 127.033 72.2739 127.045C85.234 127.086 94.6285 127.116 101.841 126.597C106.419 126.269 109.298 125.76 111.142 125.189C112.009 124.92 112.5 124.681 112.75 124.538C112.872 124.467 112.941 124.417 112.972 124.393C113.003 124.369 113.014 124.357 113.016 124.355L113.016 124.355C113.029 124.341 114.424 122.875 114.801 113.275C115.012 107.918 114.92 101.713 114.804 93.865Z" fill="#1F2650" fill-opacity="0.7"/>
<path fill-rule="evenodd" clip-rule="evenodd" d="M29.1043 72.3873C29.1902 78.1897 29.2894 84.8903 29.2894 92.8108L2.93936 92.8108C2.93936 86.0641 2.85107 79.7411 2.77024 73.952C2.64944 65.2998 2.54528 57.8401 2.77739 51.9408C3.15304 42.3934 4.36049 31.5908 11.7625 23.7765C19.2279 15.8953 30.0573 14.0994 40.1792 13.3724C48.4708 12.7769 59.2557 12.8128 72.4996 12.8569C76.2016 12.8693 80.0959 12.8822 84.1815 12.8822L84.1815 39.2323C79.6594 39.2323 75.4891 39.2192 71.6344 39.2071C58.6742 39.1663 49.2798 39.1367 42.0669 39.6548C37.4894 39.9836 34.6104 40.4925 32.7668 41.0632C31.8989 41.3319 31.408 41.5708 31.1585 41.7146C31.0363 41.785 30.9676 41.8351 30.936 41.8597C30.9055 41.8835 30.8946 41.8952 30.8926 41.8973L30.8925 41.8974C30.8792 41.9115 29.4848 43.3774 29.1071 52.9768C28.8963 58.3345 28.9881 64.5394 29.1043 72.3873Z" fill="#1F2650" fill-opacity="0.7"/>
<path d="M53.5785 112.967C53.5785 120.243 47.6798 126.142 40.4035 126.142C33.1271 126.142 27.2284 120.243 27.2284 112.967C27.2284 105.69 33.1271 99.7915 40.4035 99.7915C47.6798 99.7915 53.5785 105.69 53.5785 112.967Z" fill="#FD4344"/>
<path d="M113.744 53.2397C113.744 60.5161 107.846 66.4148 100.569 66.4148C93.293 66.4148 87.3943 60.5161 87.3943 53.2397C87.3943 45.9634 93.293 40.0647 100.569 40.0647C107.846 40.0647 113.744 45.9634 113.744 53.2397Z" fill="#1F2650"/>
<path d="M26.3501 26.4505C26.3501 33.7269 20.4514 39.6255 13.175 39.6255C5.89866 39.6255 0 33.7269 0 26.4505C0 19.1741 5.89866 13.2755 13.175 13.2755C20.4514 13.2755 26.3501 19.1741 26.3501 26.4505Z" fill="#FD4344" fill-opacity="0.7"/>
<path d="M139.655 141.952C139.655 149.228 133.757 155.127 126.48 155.127C119.204 155.127 113.305 149.228 113.305 141.952C113.305 134.675 119.204 128.777 126.48 128.777C133.757 128.777 139.655 134.675 139.655 141.952Z" fill="#1F2650" fill-opacity="0.7"/>
<path d="M206.166 64.5823C201.198 64.5823 196.614 63.7839 192.415 62.187C188.216 60.5902 184.549 58.3429 181.415 55.4449C178.34 52.4879 175.944 49.0577 174.229 45.1544C172.514 41.251 171.657 36.9633 171.657 32.2911C171.657 27.619 172.514 23.3312 174.229 19.4279C175.944 15.5246 178.34 12.124 181.415 9.22604C184.549 6.26898 188.216 3.99204 192.415 2.39522C196.614 0.798407 201.198 0 206.166 0C211.193 0 215.776 0.798407 219.916 2.39522C224.115 3.99204 227.752 6.26898 230.828 9.22604C233.903 12.124 236.298 15.5246 238.013 19.4279C239.787 23.3312 240.675 27.619 240.675 32.2911C240.675 36.9633 239.787 41.2806 238.013 45.2431C236.298 49.1464 233.903 52.547 230.828 55.4449C227.752 58.3429 224.115 60.5902 219.916 62.187C215.776 63.7839 211.193 64.5823 206.166 64.5823ZM206.166 50.0335C208.531 50.0335 210.719 49.6195 212.73 48.7916C214.8 47.9636 216.574 46.7807 218.053 45.2431C219.591 43.6463 220.774 41.7537 221.601 39.5655C222.489 37.3773 222.932 34.9525 222.932 32.2911C222.932 29.5706 222.489 27.1458 221.601 25.0168C220.774 22.8285 219.591 20.9656 218.053 19.4279C216.574 17.8311 214.8 16.6187 212.73 15.7907C210.719 14.9627 208.531 14.5488 206.166 14.5488C203.8 14.5488 201.582 14.9627 199.512 15.7907C197.501 16.6187 195.727 17.8311 194.19 19.4279C192.711 20.9656 191.528 22.8285 190.641 25.0168C189.813 27.1458 189.399 29.5706 189.399 32.2911C189.399 34.9525 189.813 37.3773 190.641 39.5655C191.528 41.7537 192.711 43.6463 194.19 45.2431C195.727 46.7807 197.501 47.9636 199.512 48.7916C201.582 49.6195 203.8 50.0335 206.166 50.0335Z" fill="#1F2650"/>
<path d="M249.874 63.3403V1.24197H278.262C283.94 1.24197 288.819 2.15866 292.9 3.99204C297.039 5.82542 300.233 8.48677 302.48 11.9761C304.728 15.4063 305.851 19.4871 305.851 24.2184C305.851 28.8905 304.728 32.9417 302.48 36.3719C300.233 39.7429 297.039 42.3452 292.9 44.1785C288.819 45.9528 283.94 46.8399 278.262 46.8399H259.633L267.439 39.4768V63.3403H249.874ZM288.287 63.3403L272.851 40.7188H291.569L307.093 63.3403H288.287ZM267.439 41.3398L259.633 33.267H277.198C280.864 33.267 283.585 32.4686 285.359 30.8717C287.192 29.2749 288.109 27.0571 288.109 24.2184C288.109 21.3204 287.192 19.0731 285.359 17.4762C283.585 15.8794 280.864 15.081 277.198 15.081H259.633L267.439 7.00824V41.3398Z" fill="#1F2650"/>
<path d="M346.591 64.5823C341.682 64.5823 337.128 63.8134 332.929 62.2758C328.73 60.679 325.093 58.4316 322.018 55.5337C319.002 52.6357 316.636 49.2351 314.921 45.3318C313.206 41.3693 312.348 37.0224 312.348 32.2911C312.348 27.5598 313.206 23.2425 314.921 19.3392C316.636 15.3767 319.031 11.9465 322.107 9.04861C325.182 6.15069 328.819 3.9329 333.018 2.39522C337.276 0.798407 341.919 0 346.946 0C352.801 0 358.035 0.975831 362.648 2.92749C367.261 4.87916 371.076 7.68837 374.092 11.3551L362.914 21.4683C360.785 19.1618 358.478 17.4467 355.994 16.323C353.57 15.1402 350.849 14.5488 347.833 14.5488C345.172 14.5488 342.747 14.9627 340.559 15.7907C338.37 16.6187 336.507 17.8311 334.97 19.4279C333.432 20.9656 332.22 22.8285 331.333 25.0168C330.505 27.1458 330.091 29.5706 330.091 32.2911C330.091 34.8934 330.505 37.2886 331.333 39.4768C332.22 41.665 333.432 43.5576 334.97 45.1544C336.507 46.692 338.341 47.9044 340.47 48.7916C342.658 49.6195 345.053 50.0335 347.656 50.0335C350.258 50.0335 352.801 49.6195 355.285 48.7916C357.769 47.9044 360.282 46.4259 362.825 44.356L372.672 56.6869C369.124 59.23 365.014 61.1816 360.341 62.5419C355.669 63.9021 351.086 64.5823 346.591 64.5823ZM357.148 54.3804V30.9605H372.672V56.6869L357.148 54.3804Z" fill="#1F2650"/>
<path d="M380.26 63.3403V52.34L403.502 30.6056C405.158 29.0679 406.371 27.7077 407.14 26.5249C407.968 25.342 408.5 24.2775 408.736 23.3312C409.032 22.3258 409.18 21.4091 409.18 20.5812C409.18 18.5704 408.5 17.0031 407.14 15.8794C405.839 14.7557 403.857 14.1939 401.196 14.1939C398.949 14.1939 396.849 14.6966 394.897 15.702C392.946 16.7074 391.349 18.2155 390.107 20.2263L377.066 12.9519C379.373 9.04862 382.714 5.91413 387.091 3.54848C391.467 1.18283 396.701 0 402.793 0C407.583 0 411.782 0.768837 415.39 2.30651C418.997 3.84418 421.807 6.03241 423.818 8.87119C425.887 11.71 426.922 15.0515 426.922 18.8956C426.922 20.9064 426.656 22.9172 426.124 24.928C425.592 26.8797 424.557 28.9792 423.019 31.2266C421.541 33.4148 419.323 35.8692 416.366 38.5897L397.914 55.6224L394.986 49.4125H428.608V63.3403H380.26Z" fill="#1F2650"/>
<path d="M436.914 63.3403V1.24197H468.673C476.835 1.24197 482.926 2.75007 486.948 5.76627C490.969 8.72334 492.98 12.6267 492.98 17.4762C492.98 20.6699 492.123 23.4791 490.408 25.9039C488.752 28.2695 486.386 30.1621 483.311 31.5814C480.294 32.9417 476.687 33.6218 472.488 33.6218L474.262 29.3636C478.638 29.3636 482.453 30.0438 485.706 31.404C488.959 32.7051 491.472 34.6272 493.246 37.1703C495.08 39.6542 495.996 42.7 495.996 46.3076C495.996 51.6895 493.808 55.8885 489.432 58.9047C485.114 61.8618 478.786 63.3403 470.447 63.3403H436.914ZM454.302 50.6545H469.028C472.044 50.6545 474.321 50.1518 475.859 49.1464C477.456 48.0819 478.254 46.485 478.254 44.356C478.254 42.2269 477.456 40.6596 475.859 39.6542C474.321 38.5897 472.044 38.0574 469.028 38.0574H453.06V25.9039H466.367C469.324 25.9039 471.542 25.4012 473.02 24.3958C474.499 23.3904 475.238 21.8823 475.238 19.8715C475.238 17.8607 474.499 16.3821 473.02 15.4359C471.542 14.4305 469.324 13.9278 466.367 13.9278H454.302V50.6545Z" fill="#1F2650"/>
</svg>
