<svg width="24" height="24" viewBox="0 0 24 24" fill="none" xmlns="http://www.w3.org/2000/svg">
<g clip-path="url(#clip0_5_19)">
<mask id="mask0_5_19" style="mask-type:alpha" maskUnits="userSpaceOnUse" x="0" y="0" width="24" height="24">
<rect width="24" height="24" fill="#D9D9D9"/>
</mask>
<g mask="url(#mask0_5_19)">
<path d="M20.6241 22.0246L17.7248 19.1253V21.312H15.7592V15.7592H21.312V17.7248H19.1007L22 20.6241L20.6241 22.0246ZM11.828 21.656C10.4685 21.656 9.19083 21.398 7.99509 20.8821C6.79934 20.3661 5.75921 19.6658 4.87469 18.7813C3.99017 17.8968 3.28993 16.8567 2.77396 15.6609C2.25799 14.4652 2 13.1876 2 11.828C2 10.4685 2.25799 9.19083 2.77396 7.99509C3.28993 6.79934 3.99017 5.75921 4.87469 4.87469C5.75921 3.99017 6.79934 3.28993 7.99509 2.77396C9.19083 2.25799 10.4685 2 11.828 2C13.1876 2 14.4652 2.25799 15.6609 2.77396C16.8567 3.28993 17.8968 3.99017 18.7813 4.87469C19.6658 5.75921 20.3661 6.79934 20.8821 7.99509C21.398 9.19083 21.656 10.4685 21.656 11.828C21.656 12.1556 21.6396 12.4832 21.6069 12.8108C21.5741 13.1384 21.525 13.466 21.4595 13.7936H19.4447C19.5266 13.466 19.588 13.1384 19.629 12.8108C19.6699 12.4832 19.6904 12.1556 19.6904 11.828C19.6904 11.5004 19.6699 11.1728 19.629 10.8452C19.588 10.5176 19.5266 10.19 19.4447 9.86241H16.1032C16.1523 10.19 16.1892 10.5176 16.2138 10.8452C16.2383 11.1728 16.2506 11.5004 16.2506 11.828C16.2506 12.1556 16.2383 12.4832 16.2138 12.8108C16.1892 13.1384 16.1523 13.466 16.1032 13.7936H14.1376C14.1867 13.466 14.2236 13.1384 14.2482 12.8108C14.2727 12.4832 14.285 12.1556 14.285 11.828C14.285 11.5004 14.2727 11.1728 14.2482 10.8452C14.2236 10.5176 14.1867 10.19 14.1376 9.86241H9.51843C9.46929 10.19 9.43243 10.5176 9.40786 10.8452C9.38329 11.1728 9.37101 11.5004 9.37101 11.828C9.37101 12.1556 9.38329 12.4832 9.40786 12.8108C9.43243 13.1384 9.46929 13.466 9.51843 13.7936H12.8108V15.7592H9.96069C10.1572 16.4636 10.4111 17.1392 10.7224 17.7862C11.0336 18.4333 11.4021 19.0516 11.828 19.6413C12.1556 19.6413 12.4832 19.6208 12.8108 19.5799C13.1384 19.5389 13.466 19.502 13.7936 19.4693V21.484C13.466 21.5168 13.1384 21.5536 12.8108 21.5946C12.4832 21.6355 12.1556 21.656 11.828 21.656ZM4.2113 13.7936H7.55283C7.50369 13.466 7.46683 13.1384 7.44226 12.8108C7.41769 12.4832 7.40541 12.1556 7.40541 11.828C7.40541 11.5004 7.41769 11.1728 7.44226 10.8452C7.46683 10.5176 7.50369 10.19 7.55283 9.86241H4.2113C4.1294 10.19 4.06798 10.5176 4.02703 10.8452C3.98608 11.1728 3.9656 11.5004 3.9656 11.828C3.9656 12.1556 3.98608 12.4832 4.02703 12.8108C4.06798 13.1384 4.1294 13.466 4.2113 13.7936ZM5.04668 7.89681H7.94595C8.09337 7.29075 8.27764 6.69697 8.49877 6.11548C8.7199 5.53399 8.97789 4.96478 9.27273 4.40786C8.37183 4.7027 7.56102 5.14906 6.84029 5.74693C6.11957 6.3448 5.5217 7.06143 5.04668 7.89681ZM9.27273 19.2482C8.97789 18.6912 8.7199 18.122 8.49877 17.5405C8.27764 16.9591 8.09337 16.3653 7.94595 15.7592H5.04668C5.5217 16.5946 6.11957 17.3112 6.84029 17.9091C7.56102 18.507 8.37183 18.9533 9.27273 19.2482ZM9.96069 7.89681H13.6953C13.4988 7.19247 13.2449 6.51679 12.9337 5.86978C12.6224 5.22277 12.2539 4.60442 11.828 4.01474C11.4021 4.60442 11.0336 5.22277 10.7224 5.86978C10.4111 6.51679 10.1572 7.19247 9.96069 7.89681ZM15.7101 7.89681H18.6093C18.1343 7.06143 17.5364 6.3448 16.8157 5.74693C16.095 5.14906 15.2842 4.7027 14.3833 4.40786C14.6781 4.96478 14.9361 5.53399 15.1572 6.11548C15.3784 6.69697 15.5627 7.29075 15.7101 7.89681Z" fill="#1C1B1F"/>
</g>
</g>
<defs>
<clipPath id="clip0_5_19">
<rect width="24" height="24" fill="white"/>
</clipPath>
</defs>
</svg>
