<svg width="128" height="128" viewBox="0 0 128 128" fill="none" xmlns="http://www.w3.org/2000/svg">
<path opacity="0.3" d="M115.993 32.049H19.0388C17.8808 32.273 16.6876 32.2382 15.5446 31.9472C14.4016 31.6562 13.3371 31.1162 12.4274 30.3657C11.5177 29.6153 10.7852 28.673 10.2825 27.6065C9.77972 26.5399 9.51915 25.3754 9.51941 24.1963V24.0444L111.993 20.0541V10.5381C112.16 9.11834 112.002 7.67917 111.531 6.32929C111.06 4.97942 110.289 3.75413 109.275 2.74597C108.261 1.7378 107.031 0.97311 105.678 0.509644C104.326 0.046178 102.885 -0.103948 101.466 0.0706023L10.4793 14.8563C7.40601 15.9855 4.7533 18.0302 2.87931 20.7143C1.00533 23.3985 0.000336234 26.5927 0 29.8659L0 116.005C0 119.186 1.2642 122.237 3.5145 124.487C5.76479 126.736 8.81685 128 11.9993 128H115.993C119.175 128 122.227 126.736 124.478 124.487C126.728 122.237 127.992 119.186 127.992 116.005V43.9559L128 43.628C128 40.5528 126.778 37.6036 124.603 35.4291C122.427 33.2546 119.477 32.033 116.401 32.033L115.977 32.041L115.993 32.049ZM103.993 88.0251C100.81 88.024 97.7574 86.7588 95.5071 84.5079C93.2568 82.2569 91.9932 79.2045 91.9943 76.0222C91.9953 72.8399 93.261 69.7883 95.5127 67.5389C97.7645 65.2894 100.818 64.0262 104.002 64.0273C105.578 64.0278 107.139 64.3387 108.595 64.9422C110.051 65.5457 111.374 66.43 112.488 67.5445C113.602 68.6591 114.486 69.9821 115.089 71.4381C115.691 72.8941 116.001 74.4545 116.001 76.0302C116 77.6059 115.689 79.1661 115.086 80.6217C114.482 82.0772 113.597 83.3997 112.482 84.5135C111.367 85.6273 110.044 86.5107 108.587 87.1132C107.131 87.7158 105.57 88.0256 103.993 88.0251Z" fill="#E7ECF3"/>
</svg>
